<svg width="1728" height="386" viewBox="0 0 1728 386" fill="none" xmlns="http://www.w3.org/2000/svg">
<g clip-path="url(#clip0_2_13)">
<path d="M142.661 1.49158H14.9932V129.164H142.661V1.49158Z" stroke="#F2F2F2" stroke-width="2" stroke-miterlimit="10"/>
<path d="M60.8536 1.49158V129.164" stroke="#F2F2F2" stroke-width="2" stroke-miterlimit="10"/>
<path d="M142.661 13.1854L60.5435 95.3042" stroke="#F2F2F2" stroke-width="2" stroke-miterlimit="10"/>
<path d="M111.342 1.49158L60.8536 51.9821" stroke="#F2F2F2" stroke-width="2" stroke-miterlimit="10"/>
<path d="M14.9932 65.3285H-48.8412V129.165H14.9932V65.3285Z" stroke="#F2F2F2" stroke-width="2" stroke-miterlimit="10"/>
<path d="M14.9933 71.1754L-26.0646 112.235" stroke="#F2F2F2" stroke-width="2" stroke-miterlimit="10"/>
<path d="M-0.665928 65.3285L-25.9109 90.573" stroke="#F2F2F2" stroke-width="2" stroke-miterlimit="10"/>
<path d="M-48.8412 1.49158H14.9932" stroke="#F2F2F2" stroke-width="2" stroke-miterlimit="10"/>
<path d="M206.495 65.3285H142.661V129.165H206.495V65.3285Z" stroke="#F2F2F2" stroke-width="2" stroke-miterlimit="10"/>
<path d="M165.591 65.3285V129.164" stroke="#F2F2F2" stroke-width="2" stroke-miterlimit="10"/>
<path d="M206.494 71.1754L165.436 112.235" stroke="#F2F2F2" stroke-width="2" stroke-miterlimit="10"/>
<path d="M190.836 65.3285L165.591 90.573" stroke="#F2F2F2" stroke-width="2" stroke-miterlimit="10"/>
<path d="M142.661 1.49158H206.493V65.3285" stroke="#F2F2F2" stroke-width="2" stroke-miterlimit="10"/>
<path d="M142.661 65.3285L206.493 1.49158" stroke="#F2F2F2" stroke-width="2" stroke-miterlimit="10"/>
<path d="M334.161 1.49158H206.494V129.164H334.161V1.49158Z" stroke="#F2F2F2" stroke-width="2" stroke-miterlimit="10"/>
<path d="M252.356 1.49158V129.164" stroke="#F2F2F2" stroke-width="2" stroke-miterlimit="10"/>
<path d="M334.162 13.1854L252.045 95.3042" stroke="#F2F2F2" stroke-width="2" stroke-miterlimit="10"/>
<path d="M302.844 1.49158L252.356 51.9821" stroke="#F2F2F2" stroke-width="2" stroke-miterlimit="10"/>
<path d="M525.663 1.49158H397.995V129.164H525.663V1.49158Z" stroke="#F2F2F2" stroke-width="2" stroke-miterlimit="10"/>
<path d="M443.857 1.49158V129.164" stroke="#F2F2F2" stroke-width="2" stroke-miterlimit="10"/>
<path d="M525.663 13.1854L443.547 95.3042" stroke="#F2F2F2" stroke-width="2" stroke-miterlimit="10"/>
<path d="M494.344 1.49158L443.857 51.9821" stroke="#F2F2F2" stroke-width="2" stroke-miterlimit="10"/>
<path d="M397.997 65.3285H334.162V129.165H397.997V65.3285Z" stroke="#F2F2F2" stroke-width="2" stroke-miterlimit="10"/>
<path d="M357.093 65.3285V129.164" stroke="#F2F2F2" stroke-width="2" stroke-miterlimit="10"/>
<path d="M397.995 71.1754L356.938 112.235" stroke="#F2F2F2" stroke-width="2" stroke-miterlimit="10"/>
<path d="M382.336 65.3285L357.093 90.573" stroke="#F2F2F2" stroke-width="2" stroke-miterlimit="10"/>
<path d="M334.162 1.49158H397.995" stroke="#F2F2F2" stroke-width="2" stroke-miterlimit="10"/>
<path d="M589.497 65.3285H525.663V129.165H589.497V65.3285Z" stroke="#F2F2F2" stroke-width="2" stroke-miterlimit="10"/>
<path d="M548.594 65.3285V129.164" stroke="#F2F2F2" stroke-width="2" stroke-miterlimit="10"/>
<path d="M589.497 71.1754L548.439 112.235" stroke="#F2F2F2" stroke-width="2" stroke-miterlimit="10"/>
<path d="M573.838 65.3285L548.594 90.573" stroke="#F2F2F2" stroke-width="2" stroke-miterlimit="10"/>
<path d="M525.663 1.49158H589.497V65.3285" stroke="#F2F2F2" stroke-width="2" stroke-miterlimit="10"/>
<path d="M525.663 65.3285L589.497 1.49158" stroke="#F2F2F2" stroke-width="2" stroke-miterlimit="10"/>
<path d="M717.164 1.49158H589.497V129.164H717.164V1.49158Z" stroke="#F2F2F2" stroke-width="2" stroke-miterlimit="10"/>
<path d="M635.358 1.49158V129.164" stroke="#F2F2F2" stroke-width="2" stroke-miterlimit="10"/>
<path d="M717.165 13.1854L635.049 95.3042" stroke="#F2F2F2" stroke-width="2" stroke-miterlimit="10"/>
<path d="M685.846 1.49158L635.358 51.9821" stroke="#F2F2F2" stroke-width="2" stroke-miterlimit="10"/>
<path d="M908.666 1.49158H780.999V129.164H908.666V1.49158Z" stroke="#F2F2F2" stroke-width="2" stroke-miterlimit="10"/>
<path d="M826.859 1.49158V129.164" stroke="#F2F2F2" stroke-width="2" stroke-miterlimit="10"/>
<path d="M908.666 13.1854L826.549 95.3042" stroke="#F2F2F2" stroke-width="2" stroke-miterlimit="10"/>
<path d="M877.348 1.49158L826.859 51.9821" stroke="#F2F2F2" stroke-width="2" stroke-miterlimit="10"/>
<path d="M780.999 65.3285H717.164V129.165H780.999V65.3285Z" stroke="#F2F2F2" stroke-width="2" stroke-miterlimit="10"/>
<path d="M740.095 65.3285V129.164" stroke="#F2F2F2" stroke-width="2" stroke-miterlimit="10"/>
<path d="M780.999 71.1754L739.94 112.235" stroke="#F2F2F2" stroke-width="2" stroke-miterlimit="10"/>
<path d="M765.34 65.3285L740.095 90.573" stroke="#F2F2F2" stroke-width="2" stroke-miterlimit="10"/>
<path d="M717.164 1.49158H780.999" stroke="#F2F2F2" stroke-width="2" stroke-miterlimit="10"/>
<path d="M972.501 65.3285H908.666V129.165H972.501V65.3285Z" stroke="#F2F2F2" stroke-width="2" stroke-miterlimit="10"/>
<path d="M931.597 65.3285V129.164" stroke="#F2F2F2" stroke-width="2" stroke-miterlimit="10"/>
<path d="M972.499 71.1754L931.441 112.235" stroke="#F2F2F2" stroke-width="2" stroke-miterlimit="10"/>
<path d="M956.84 65.3285L931.597 90.573" stroke="#F2F2F2" stroke-width="2" stroke-miterlimit="10"/>
<path d="M908.666 1.49158H972.499V65.3285" stroke="#F2F2F2" stroke-width="2" stroke-miterlimit="10"/>
<path d="M908.666 65.3285L972.499 1.49158" stroke="#F2F2F2" stroke-width="2" stroke-miterlimit="10"/>
<path d="M1100.17 1.49158H972.499V129.164H1100.17V1.49158Z" stroke="#F2F2F2" stroke-width="2" stroke-miterlimit="10"/>
<path d="M1018.36 1.49158V129.164" stroke="#F2F2F2" stroke-width="2" stroke-miterlimit="10"/>
<path d="M1100.17 13.1854L1018.05 95.3042" stroke="#F2F2F2" stroke-width="2" stroke-miterlimit="10"/>
<path d="M1068.85 1.49158L1018.36 51.9821" stroke="#F2F2F2" stroke-width="2" stroke-miterlimit="10"/>
<path d="M1291.67 1.49158H1164V129.164H1291.67V1.49158Z" stroke="#F2F2F2" stroke-width="2" stroke-miterlimit="10"/>
<path d="M1209.86 1.49158V129.164" stroke="#F2F2F2" stroke-width="2" stroke-miterlimit="10"/>
<path d="M1291.67 13.1854L1209.55 95.3042" stroke="#F2F2F2" stroke-width="2" stroke-miterlimit="10"/>
<path d="M1260.35 1.49158L1209.86 51.9821" stroke="#F2F2F2" stroke-width="2" stroke-miterlimit="10"/>
<path d="M1164 65.3285H1100.17V129.165H1164V65.3285Z" stroke="#F2F2F2" stroke-width="2" stroke-miterlimit="10"/>
<path d="M1123.1 65.3285V129.164" stroke="#F2F2F2" stroke-width="2" stroke-miterlimit="10"/>
<path d="M1164 71.1754L1122.94 112.235" stroke="#F2F2F2" stroke-width="2" stroke-miterlimit="10"/>
<path d="M1148.34 65.3285L1123.1 90.573" stroke="#F2F2F2" stroke-width="2" stroke-miterlimit="10"/>
<path d="M1100.17 1.49158H1164" stroke="#F2F2F2" stroke-width="2" stroke-miterlimit="10"/>
<path d="M1355.5 65.3285H1291.67V129.165H1355.5V65.3285Z" stroke="#F2F2F2" stroke-width="2" stroke-miterlimit="10"/>
<path d="M1314.6 65.3285V129.164" stroke="#F2F2F2" stroke-width="2" stroke-miterlimit="10"/>
<path d="M1355.5 71.1754L1314.44 112.235" stroke="#F2F2F2" stroke-width="2" stroke-miterlimit="10"/>
<path d="M1339.84 65.3285L1314.6 90.573" stroke="#F2F2F2" stroke-width="2" stroke-miterlimit="10"/>
<path d="M1291.67 1.49158H1355.5V65.3285" stroke="#F2F2F2" stroke-width="2" stroke-miterlimit="10"/>
<path d="M1291.67 65.3285L1355.5 1.49158" stroke="#F2F2F2" stroke-width="2" stroke-miterlimit="10"/>
<path d="M1483.17 1.49158H1355.5V129.164H1483.17V1.49158Z" stroke="#F2F2F2" stroke-width="2" stroke-miterlimit="10"/>
<path d="M1401.36 1.49158V129.164" stroke="#F2F2F2" stroke-width="2" stroke-miterlimit="10"/>
<path d="M1483.17 13.1854L1401.05 95.3042" stroke="#F2F2F2" stroke-width="2" stroke-miterlimit="10"/>
<path d="M1451.85 1.49158L1401.36 51.9821" stroke="#F2F2F2" stroke-width="2" stroke-miterlimit="10"/>
<path d="M1674.67 1.49158H1547V129.164H1674.67V1.49158Z" stroke="#F2F2F2" stroke-width="2" stroke-miterlimit="10"/>
<path d="M1592.87 1.49158V129.164" stroke="#F2F2F2" stroke-width="2" stroke-miterlimit="10"/>
<path d="M1674.67 13.1854L1592.55 95.3042" stroke="#F2F2F2" stroke-width="2" stroke-miterlimit="10"/>
<path d="M1643.35 1.49158L1592.87 51.9821" stroke="#F2F2F2" stroke-width="2" stroke-miterlimit="10"/>
<path d="M1547 65.3285H1483.17V129.165H1547V65.3285Z" stroke="#F2F2F2" stroke-width="2" stroke-miterlimit="10"/>
<path d="M1506.1 65.3285V129.164" stroke="#F2F2F2" stroke-width="2" stroke-miterlimit="10"/>
<path d="M1547 71.1754L1505.95 112.235" stroke="#F2F2F2" stroke-width="2" stroke-miterlimit="10"/>
<path d="M1531.34 65.3285L1506.1 90.573" stroke="#F2F2F2" stroke-width="2" stroke-miterlimit="10"/>
<path d="M1483.17 1.49158H1547" stroke="#F2F2F2" stroke-width="2" stroke-miterlimit="10"/>
<path d="M1738.51 65.3285H1674.67V129.165H1738.51V65.3285Z" stroke="#F2F2F2" stroke-width="2" stroke-miterlimit="10"/>
<path d="M1697.6 65.3285V129.164" stroke="#F2F2F2" stroke-width="2" stroke-miterlimit="10"/>
<path d="M1738.5 71.1754L1697.45 112.235" stroke="#F2F2F2" stroke-width="2" stroke-miterlimit="10"/>
<path d="M1722.85 65.3285L1697.6 90.573" stroke="#F2F2F2" stroke-width="2" stroke-miterlimit="10"/>
<path d="M1674.67 1.49158H1738.5V65.3285" stroke="#F2F2F2" stroke-width="2" stroke-miterlimit="10"/>
<path d="M1674.67 65.3285L1738.5 1.49158" stroke="#F2F2F2" stroke-width="2" stroke-miterlimit="10"/>
<path d="M14.9932 129.164H-112.674V256.836H14.9932V129.164Z" stroke="#F2F2F2" stroke-width="2" stroke-miterlimit="10"/>
<path d="M14.9932 140.858L-67.1239 222.978" stroke="#F2F2F2" stroke-width="2" stroke-miterlimit="10"/>
<path d="M78.8277 193.001H14.9932V256.838H78.8277V193.001Z" stroke="#F2F2F2" stroke-width="2" stroke-miterlimit="10"/>
<path d="M37.9235 193.001V256.836" stroke="#F2F2F2" stroke-width="2" stroke-miterlimit="10"/>
<path d="M78.8261 198.848L37.7683 239.907" stroke="#F2F2F2" stroke-width="2" stroke-miterlimit="10"/>
<path d="M63.167 193.001L37.9235 218.245" stroke="#F2F2F2" stroke-width="2" stroke-miterlimit="10"/>
<path d="M14.9932 129.164H78.8262V193.001" stroke="#F2F2F2" stroke-width="2" stroke-miterlimit="10"/>
<path d="M14.9932 193.001L78.8262 129.164" stroke="#F2F2F2" stroke-width="2" stroke-miterlimit="10"/>
<path d="M206.494 129.164H78.8262V256.836H206.494V129.164Z" stroke="#F2F2F2" stroke-width="2" stroke-miterlimit="10"/>
<path d="M124.688 129.164V256.836" stroke="#F2F2F2" stroke-width="2" stroke-miterlimit="10"/>
<path d="M206.494 140.858L124.378 222.978" stroke="#F2F2F2" stroke-width="2" stroke-miterlimit="10"/>
<path d="M175.177 129.164L124.688 179.654" stroke="#F2F2F2" stroke-width="2" stroke-miterlimit="10"/>
<path d="M397.995 129.164H270.328V256.836H397.995V129.164Z" stroke="#F2F2F2" stroke-width="2" stroke-miterlimit="10"/>
<path d="M316.19 129.164V256.836" stroke="#F2F2F2" stroke-width="2" stroke-miterlimit="10"/>
<path d="M397.995 140.858L315.88 222.978" stroke="#F2F2F2" stroke-width="2" stroke-miterlimit="10"/>
<path d="M366.677 129.164L316.188 179.654" stroke="#F2F2F2" stroke-width="2" stroke-miterlimit="10"/>
<path d="M270.328 193.001H206.494V256.838H270.328V193.001Z" stroke="#F2F2F2" stroke-width="2" stroke-miterlimit="10"/>
<path d="M229.425 193.001V256.836" stroke="#F2F2F2" stroke-width="2" stroke-miterlimit="10"/>
<path d="M270.328 198.848L229.27 239.907" stroke="#F2F2F2" stroke-width="2" stroke-miterlimit="10"/>
<path d="M254.669 193.001L229.425 218.245" stroke="#F2F2F2" stroke-width="2" stroke-miterlimit="10"/>
<path d="M206.494 129.164H270.328" stroke="#F2F2F2" stroke-width="2" stroke-miterlimit="10"/>
<path d="M461.83 193.001H397.995V256.838H461.83V193.001Z" stroke="#F2F2F2" stroke-width="2" stroke-miterlimit="10"/>
<path d="M420.926 193.001V256.836" stroke="#F2F2F2" stroke-width="2" stroke-miterlimit="10"/>
<path d="M461.83 198.848L420.77 239.907" stroke="#F2F2F2" stroke-width="2" stroke-miterlimit="10"/>
<path d="M446.171 193.001L420.926 218.245" stroke="#F2F2F2" stroke-width="2" stroke-miterlimit="10"/>
<path d="M397.995 129.164H461.83V193.001" stroke="#F2F2F2" stroke-width="2" stroke-miterlimit="10"/>
<path d="M397.995 193.001L461.83 129.164" stroke="#F2F2F2" stroke-width="2" stroke-miterlimit="10"/>
<path d="M589.497 129.164H461.83V256.836H589.497V129.164Z" stroke="#F2F2F2" stroke-width="2" stroke-miterlimit="10"/>
<path d="M507.69 129.164V256.836" stroke="#F2F2F2" stroke-width="2" stroke-miterlimit="10"/>
<path d="M589.497 140.858L507.38 222.978" stroke="#F2F2F2" stroke-width="2" stroke-miterlimit="10"/>
<path d="M558.179 129.164L507.69 179.654" stroke="#F2F2F2" stroke-width="2" stroke-miterlimit="10"/>
<path d="M780.997 129.164H653.33V256.836H780.997V129.164Z" stroke="#F2F2F2" stroke-width="2" stroke-miterlimit="10"/>
<path d="M699.192 129.164V256.836" stroke="#F2F2F2" stroke-width="2" stroke-miterlimit="10"/>
<path d="M780.999 140.858L698.882 222.978" stroke="#F2F2F2" stroke-width="2" stroke-miterlimit="10"/>
<path d="M749.681 129.164L699.192 179.654" stroke="#F2F2F2" stroke-width="2" stroke-miterlimit="10"/>
<path d="M653.332 193.001H589.497V256.838H653.332V193.001Z" stroke="#F2F2F2" stroke-width="2" stroke-miterlimit="10"/>
<path d="M612.427 193.001V256.836" stroke="#F2F2F2" stroke-width="2" stroke-miterlimit="10"/>
<path d="M653.33 198.848L612.272 239.907" stroke="#F2F2F2" stroke-width="2" stroke-miterlimit="10"/>
<path d="M637.672 193.001L612.427 218.245" stroke="#F2F2F2" stroke-width="2" stroke-miterlimit="10"/>
<path d="M589.497 129.164H653.33" stroke="#F2F2F2" stroke-width="2" stroke-miterlimit="10"/>
<path d="M844.833 193.001H780.999V256.838H844.833V193.001Z" stroke="#F2F2F2" stroke-width="2" stroke-miterlimit="10"/>
<path d="M803.929 193.001V256.836" stroke="#F2F2F2" stroke-width="2" stroke-miterlimit="10"/>
<path d="M844.832 198.848L803.774 239.907" stroke="#F2F2F2" stroke-width="2" stroke-miterlimit="10"/>
<path d="M829.173 193.001L803.929 218.245" stroke="#F2F2F2" stroke-width="2" stroke-miterlimit="10"/>
<path d="M780.999 129.164H844.832V193.001" stroke="#F2F2F2" stroke-width="2" stroke-miterlimit="10"/>
<path d="M780.999 193.001L844.832 129.164" stroke="#F2F2F2" stroke-width="2" stroke-miterlimit="10"/>
<path d="M972.499 129.164H844.832V256.836H972.499V129.164Z" stroke="#F2F2F2" stroke-width="2" stroke-miterlimit="10"/>
<path d="M890.694 129.164V256.836" stroke="#F2F2F2" stroke-width="2" stroke-miterlimit="10"/>
<path d="M972.499 140.858L890.384 222.978" stroke="#F2F2F2" stroke-width="2" stroke-miterlimit="10"/>
<path d="M941.181 129.164L890.694 179.654" stroke="#F2F2F2" stroke-width="2" stroke-miterlimit="10"/>
<path d="M1164 129.164H1036.33V256.836H1164V129.164Z" stroke="#F2F2F2" stroke-width="2" stroke-miterlimit="10"/>
<path d="M1082.19 129.164V256.836" stroke="#F2F2F2" stroke-width="2" stroke-miterlimit="10"/>
<path d="M1164 140.858L1081.89 222.978" stroke="#F2F2F2" stroke-width="2" stroke-miterlimit="10"/>
<path d="M1132.68 129.164L1082.19 179.654" stroke="#F2F2F2" stroke-width="2" stroke-miterlimit="10"/>
<path d="M1036.33 193.001H972.499V256.838H1036.33V193.001Z" stroke="#F2F2F2" stroke-width="2" stroke-miterlimit="10"/>
<path d="M995.431 193.001V256.836" stroke="#F2F2F2" stroke-width="2" stroke-miterlimit="10"/>
<path d="M1036.33 198.848L995.276 239.907" stroke="#F2F2F2" stroke-width="2" stroke-miterlimit="10"/>
<path d="M1020.67 193.001L995.431 218.245" stroke="#F2F2F2" stroke-width="2" stroke-miterlimit="10"/>
<path d="M972.499 129.164H1036.33" stroke="#F2F2F2" stroke-width="2" stroke-miterlimit="10"/>
<path d="M1227.84 193.001H1164V256.838H1227.84V193.001Z" stroke="#F2F2F2" stroke-width="2" stroke-miterlimit="10"/>
<path d="M1186.93 193.001V256.836" stroke="#F2F2F2" stroke-width="2" stroke-miterlimit="10"/>
<path d="M1227.84 198.848L1186.78 239.907" stroke="#F2F2F2" stroke-width="2" stroke-miterlimit="10"/>
<path d="M1212.18 193.001L1186.93 218.245" stroke="#F2F2F2" stroke-width="2" stroke-miterlimit="10"/>
<path d="M1164 129.164H1227.84V193.001" stroke="#F2F2F2" stroke-width="2" stroke-miterlimit="10"/>
<path d="M1164 193.001L1227.84 129.164" stroke="#F2F2F2" stroke-width="2" stroke-miterlimit="10"/>
<path d="M1355.5 129.164H1227.84V256.836H1355.5V129.164Z" stroke="#F2F2F2" stroke-width="2" stroke-miterlimit="10"/>
<path d="M1273.7 129.164V256.836" stroke="#F2F2F2" stroke-width="2" stroke-miterlimit="10"/>
<path d="M1355.5 140.858L1273.39 222.978" stroke="#F2F2F2" stroke-width="2" stroke-miterlimit="10"/>
<path d="M1324.18 129.164L1273.7 179.654" stroke="#F2F2F2" stroke-width="2" stroke-miterlimit="10"/>
<path d="M1547 129.164H1419.34V256.836H1547V129.164Z" stroke="#F2F2F2" stroke-width="2" stroke-miterlimit="10"/>
<path d="M1465.2 129.164V256.836" stroke="#F2F2F2" stroke-width="2" stroke-miterlimit="10"/>
<path d="M1547 140.858L1464.89 222.978" stroke="#F2F2F2" stroke-width="2" stroke-miterlimit="10"/>
<path d="M1515.69 129.164L1465.2 179.654" stroke="#F2F2F2" stroke-width="2" stroke-miterlimit="10"/>
<path d="M1419.34 193.001H1355.5V256.838H1419.34V193.001Z" stroke="#F2F2F2" stroke-width="2" stroke-miterlimit="10"/>
<path d="M1378.43 193.001V256.836" stroke="#F2F2F2" stroke-width="2" stroke-miterlimit="10"/>
<path d="M1419.34 198.848L1378.28 239.907" stroke="#F2F2F2" stroke-width="2" stroke-miterlimit="10"/>
<path d="M1403.68 193.001L1378.43 218.245" stroke="#F2F2F2" stroke-width="2" stroke-miterlimit="10"/>
<path d="M1355.5 129.164H1419.34" stroke="#F2F2F2" stroke-width="2" stroke-miterlimit="10"/>
<path d="M1610.84 193.001H1547V256.838H1610.84V193.001Z" stroke="#F2F2F2" stroke-width="2" stroke-miterlimit="10"/>
<path d="M1569.93 193.001V256.836" stroke="#F2F2F2" stroke-width="2" stroke-miterlimit="10"/>
<path d="M1610.84 198.848L1569.78 239.907" stroke="#F2F2F2" stroke-width="2" stroke-miterlimit="10"/>
<path d="M1595.18 193.001L1569.93 218.245" stroke="#F2F2F2" stroke-width="2" stroke-miterlimit="10"/>
<path d="M1547 129.164H1610.84V193.001" stroke="#F2F2F2" stroke-width="2" stroke-miterlimit="10"/>
<path d="M1547 193.001L1610.84 129.164" stroke="#F2F2F2" stroke-width="2" stroke-miterlimit="10"/>
<path d="M1738.5 129.164H1610.84V256.836H1738.5V129.164Z" stroke="#F2F2F2" stroke-width="2" stroke-miterlimit="10"/>
<path d="M1656.7 129.164V256.836" stroke="#F2F2F2" stroke-width="2" stroke-miterlimit="10"/>
<path d="M1738.5 140.858L1656.39 222.978" stroke="#F2F2F2" stroke-width="2" stroke-miterlimit="10"/>
<path d="M1707.19 129.164L1656.7 179.654" stroke="#F2F2F2" stroke-width="2" stroke-miterlimit="10"/>
<path d="M142.661 256.836H14.9932V384.508H142.661V256.836Z" stroke="#F2F2F2" stroke-width="2" stroke-miterlimit="10"/>
<path d="M60.8536 256.836V384.508" stroke="#F2F2F2" stroke-width="2" stroke-miterlimit="10"/>
<path d="M142.661 268.53L60.5435 350.65" stroke="#F2F2F2" stroke-width="2" stroke-miterlimit="10"/>
<path d="M111.342 256.836L60.8536 307.327" stroke="#F2F2F2" stroke-width="2" stroke-miterlimit="10"/>
<path d="M14.9932 320.673H-48.8412V384.51H14.9932V320.673Z" stroke="#F2F2F2" stroke-width="2" stroke-miterlimit="10"/>
<path d="M14.9933 326.52L-26.0646 367.579" stroke="#F2F2F2" stroke-width="2" stroke-miterlimit="10"/>
<path d="M-0.665928 320.673L-25.9109 345.918" stroke="#F2F2F2" stroke-width="2" stroke-miterlimit="10"/>
<path d="M-48.8412 256.836H14.9932" stroke="#F2F2F2" stroke-width="2" stroke-miterlimit="10"/>
<path d="M206.495 320.673H142.661V384.51H206.495V320.673Z" stroke="#F2F2F2" stroke-width="2" stroke-miterlimit="10"/>
<path d="M165.591 320.673V384.508" stroke="#F2F2F2" stroke-width="2" stroke-miterlimit="10"/>
<path d="M206.494 326.52L165.436 367.579" stroke="#F2F2F2" stroke-width="2" stroke-miterlimit="10"/>
<path d="M190.836 320.673L165.591 345.918" stroke="#F2F2F2" stroke-width="2" stroke-miterlimit="10"/>
<path d="M142.661 256.836H206.493V320.673" stroke="#F2F2F2" stroke-width="2" stroke-miterlimit="10"/>
<path d="M142.661 320.673L206.493 256.836" stroke="#F2F2F2" stroke-width="2" stroke-miterlimit="10"/>
<path d="M334.161 256.836H206.494V384.508H334.161V256.836Z" stroke="#F2F2F2" stroke-width="2" stroke-miterlimit="10"/>
<path d="M252.356 256.836V384.508" stroke="#F2F2F2" stroke-width="2" stroke-miterlimit="10"/>
<path d="M334.162 268.53L252.045 350.65" stroke="#F2F2F2" stroke-width="2" stroke-miterlimit="10"/>
<path d="M302.844 256.836L252.356 307.327" stroke="#F2F2F2" stroke-width="2" stroke-miterlimit="10"/>
<path d="M525.663 256.836H397.995V384.508H525.663V256.836Z" stroke="#F2F2F2" stroke-width="2" stroke-miterlimit="10"/>
<path d="M443.857 256.836V384.508" stroke="#F2F2F2" stroke-width="2" stroke-miterlimit="10"/>
<path d="M525.663 268.53L443.547 350.65" stroke="#F2F2F2" stroke-width="2" stroke-miterlimit="10"/>
<path d="M494.344 256.836L443.857 307.327" stroke="#F2F2F2" stroke-width="2" stroke-miterlimit="10"/>
<path d="M397.997 320.673H334.162V384.51H397.997V320.673Z" stroke="#F2F2F2" stroke-width="2" stroke-miterlimit="10"/>
<path d="M357.093 320.673V384.508" stroke="#F2F2F2" stroke-width="2" stroke-miterlimit="10"/>
<path d="M397.995 326.52L356.938 367.579" stroke="#F2F2F2" stroke-width="2" stroke-miterlimit="10"/>
<path d="M382.336 320.673L357.093 345.918" stroke="#F2F2F2" stroke-width="2" stroke-miterlimit="10"/>
<path d="M334.162 256.836H397.995" stroke="#F2F2F2" stroke-width="2" stroke-miterlimit="10"/>
<path d="M589.497 320.673H525.663V384.51H589.497V320.673Z" stroke="#F2F2F2" stroke-width="2" stroke-miterlimit="10"/>
<path d="M548.594 320.673V384.508" stroke="#F2F2F2" stroke-width="2" stroke-miterlimit="10"/>
<path d="M589.497 326.52L548.439 367.579" stroke="#F2F2F2" stroke-width="2" stroke-miterlimit="10"/>
<path d="M573.838 320.673L548.594 345.918" stroke="#F2F2F2" stroke-width="2" stroke-miterlimit="10"/>
<path d="M525.663 256.836H589.497V320.673" stroke="#F2F2F2" stroke-width="2" stroke-miterlimit="10"/>
<path d="M525.663 320.673L589.497 256.836" stroke="#F2F2F2" stroke-width="2" stroke-miterlimit="10"/>
<path d="M717.164 256.836H589.497V384.508H717.164V256.836Z" stroke="#F2F2F2" stroke-width="2" stroke-miterlimit="10"/>
<path d="M635.358 256.836V384.508" stroke="#F2F2F2" stroke-width="2" stroke-miterlimit="10"/>
<path d="M717.165 268.53L635.049 350.65" stroke="#F2F2F2" stroke-width="2" stroke-miterlimit="10"/>
<path d="M685.846 256.836L635.358 307.327" stroke="#F2F2F2" stroke-width="2" stroke-miterlimit="10"/>
<path d="M908.666 256.836H780.999V384.508H908.666V256.836Z" stroke="#F2F2F2" stroke-width="2" stroke-miterlimit="10"/>
<path d="M826.859 256.836V384.508" stroke="#F2F2F2" stroke-width="2" stroke-miterlimit="10"/>
<path d="M908.666 268.53L826.549 350.65" stroke="#F2F2F2" stroke-width="2" stroke-miterlimit="10"/>
<path d="M877.348 256.836L826.859 307.327" stroke="#F2F2F2" stroke-width="2" stroke-miterlimit="10"/>
<path d="M780.999 320.673H717.164V384.51H780.999V320.673Z" stroke="#F2F2F2" stroke-width="2" stroke-miterlimit="10"/>
<path d="M740.095 320.673V384.508" stroke="#F2F2F2" stroke-width="2" stroke-miterlimit="10"/>
<path d="M780.999 326.52L739.94 367.579" stroke="#F2F2F2" stroke-width="2" stroke-miterlimit="10"/>
<path d="M765.34 320.673L740.095 345.918" stroke="#F2F2F2" stroke-width="2" stroke-miterlimit="10"/>
<path d="M717.164 256.836H780.999" stroke="#F2F2F2" stroke-width="2" stroke-miterlimit="10"/>
<path d="M972.501 320.673H908.666V384.51H972.501V320.673Z" stroke="#F2F2F2" stroke-width="2" stroke-miterlimit="10"/>
<path d="M931.597 320.673V384.508" stroke="#F2F2F2" stroke-width="2" stroke-miterlimit="10"/>
<path d="M972.499 326.52L931.441 367.579" stroke="#F2F2F2" stroke-width="2" stroke-miterlimit="10"/>
<path d="M956.84 320.673L931.597 345.918" stroke="#F2F2F2" stroke-width="2" stroke-miterlimit="10"/>
<path d="M908.666 256.836H972.499V320.673" stroke="#F2F2F2" stroke-width="2" stroke-miterlimit="10"/>
<path d="M908.666 320.673L972.499 256.836" stroke="#F2F2F2" stroke-width="2" stroke-miterlimit="10"/>
<path d="M1100.17 256.836H972.499V384.508H1100.17V256.836Z" stroke="#F2F2F2" stroke-width="2" stroke-miterlimit="10"/>
<path d="M1018.36 256.836V384.508" stroke="#F2F2F2" stroke-width="2" stroke-miterlimit="10"/>
<path d="M1100.17 268.53L1018.05 350.65" stroke="#F2F2F2" stroke-width="2" stroke-miterlimit="10"/>
<path d="M1068.85 256.836L1018.36 307.327" stroke="#F2F2F2" stroke-width="2" stroke-miterlimit="10"/>
<path d="M1291.67 256.836H1164V384.508H1291.67V256.836Z" stroke="#F2F2F2" stroke-width="2" stroke-miterlimit="10"/>
<path d="M1209.86 256.836V384.508" stroke="#F2F2F2" stroke-width="2" stroke-miterlimit="10"/>
<path d="M1291.67 268.53L1209.55 350.65" stroke="#F2F2F2" stroke-width="2" stroke-miterlimit="10"/>
<path d="M1260.35 256.836L1209.86 307.327" stroke="#F2F2F2" stroke-width="2" stroke-miterlimit="10"/>
<path d="M1164 320.673H1100.17V384.51H1164V320.673Z" stroke="#F2F2F2" stroke-width="2" stroke-miterlimit="10"/>
<path d="M1123.1 320.673V384.508" stroke="#F2F2F2" stroke-width="2" stroke-miterlimit="10"/>
<path d="M1164 326.52L1122.94 367.579" stroke="#F2F2F2" stroke-width="2" stroke-miterlimit="10"/>
<path d="M1148.34 320.673L1123.1 345.918" stroke="#F2F2F2" stroke-width="2" stroke-miterlimit="10"/>
<path d="M1100.17 256.836H1164" stroke="#F2F2F2" stroke-width="2" stroke-miterlimit="10"/>
<path d="M1355.5 320.673H1291.67V384.51H1355.5V320.673Z" stroke="#F2F2F2" stroke-width="2" stroke-miterlimit="10"/>
<path d="M1314.6 320.673V384.508" stroke="#F2F2F2" stroke-width="2" stroke-miterlimit="10"/>
<path d="M1355.5 326.52L1314.44 367.579" stroke="#F2F2F2" stroke-width="2" stroke-miterlimit="10"/>
<path d="M1339.84 320.673L1314.6 345.918" stroke="#F2F2F2" stroke-width="2" stroke-miterlimit="10"/>
<path d="M1291.67 256.836H1355.5V320.673" stroke="#F2F2F2" stroke-width="2" stroke-miterlimit="10"/>
<path d="M1291.67 320.673L1355.5 256.836" stroke="#F2F2F2" stroke-width="2" stroke-miterlimit="10"/>
<path d="M1483.17 256.836H1355.5V384.508H1483.17V256.836Z" stroke="#F2F2F2" stroke-width="2" stroke-miterlimit="10"/>
<path d="M1401.36 256.836V384.508" stroke="#F2F2F2" stroke-width="2" stroke-miterlimit="10"/>
<path d="M1483.17 268.53L1401.05 350.65" stroke="#F2F2F2" stroke-width="2" stroke-miterlimit="10"/>
<path d="M1451.85 256.836L1401.36 307.327" stroke="#F2F2F2" stroke-width="2" stroke-miterlimit="10"/>
<path d="M1674.67 256.836H1547V384.508H1674.67V256.836Z" stroke="#F2F2F2" stroke-width="2" stroke-miterlimit="10"/>
<path d="M1592.87 256.836V384.508" stroke="#F2F2F2" stroke-width="2" stroke-miterlimit="10"/>
<path d="M1674.67 268.53L1592.55 350.65" stroke="#F2F2F2" stroke-width="2" stroke-miterlimit="10"/>
<path d="M1643.35 256.836L1592.87 307.327" stroke="#F2F2F2" stroke-width="2" stroke-miterlimit="10"/>
<path d="M1547 320.673H1483.17V384.51H1547V320.673Z" stroke="#F2F2F2" stroke-width="2" stroke-miterlimit="10"/>
<path d="M1506.1 320.673V384.508" stroke="#F2F2F2" stroke-width="2" stroke-miterlimit="10"/>
<path d="M1547 326.52L1505.95 367.579" stroke="#F2F2F2" stroke-width="2" stroke-miterlimit="10"/>
<path d="M1531.34 320.673L1506.1 345.918" stroke="#F2F2F2" stroke-width="2" stroke-miterlimit="10"/>
<path d="M1483.17 256.836H1547" stroke="#F2F2F2" stroke-width="2" stroke-miterlimit="10"/>
<path d="M1738.51 320.673H1674.67V384.51H1738.51V320.673Z" stroke="#F2F2F2" stroke-width="2" stroke-miterlimit="10"/>
<path d="M1697.6 320.673V384.508" stroke="#F2F2F2" stroke-width="2" stroke-miterlimit="10"/>
<path d="M1738.5 326.52L1697.45 367.579" stroke="#F2F2F2" stroke-width="2" stroke-miterlimit="10"/>
<path d="M1722.85 320.673L1697.6 345.918" stroke="#F2F2F2" stroke-width="2" stroke-miterlimit="10"/>
<path d="M1674.67 256.836H1738.5V320.673" stroke="#F2F2F2" stroke-width="2" stroke-miterlimit="10"/>
<path d="M1674.67 320.673L1738.5 256.836" stroke="#F2F2F2" stroke-width="2" stroke-miterlimit="10"/>
<g opacity="0.8" filter="url(#filter0_f_2_13)">
<rect x="673" y="231" width="243" height="77" fill="white"/>
</g>
<g opacity="0.8" filter="url(#filter1_f_2_13)">
<rect x="1060" y="231" width="243" height="77" fill="white"/>
</g>
<g opacity="0.8" filter="url(#filter2_f_2_13)">
<rect x="1410" y="231" width="243" height="77" fill="white"/>
</g>
</g>
<defs>
<filter id="filter0_f_2_13" x="643" y="201" width="303" height="137" filterUnits="userSpaceOnUse" color-interpolation-filters="sRGB">
<feFlood flood-opacity="0" result="BackgroundImageFix"/>
<feBlend mode="normal" in="SourceGraphic" in2="BackgroundImageFix" result="shape"/>
<feGaussianBlur stdDeviation="15" result="effect1_foregroundBlur_2_13"/>
</filter>
<filter id="filter1_f_2_13" x="1030" y="201" width="303" height="137" filterUnits="userSpaceOnUse" color-interpolation-filters="sRGB">
<feFlood flood-opacity="0" result="BackgroundImageFix"/>
<feBlend mode="normal" in="SourceGraphic" in2="BackgroundImageFix" result="shape"/>
<feGaussianBlur stdDeviation="15" result="effect1_foregroundBlur_2_13"/>
</filter>
<filter id="filter2_f_2_13" x="1380" y="201" width="303" height="137" filterUnits="userSpaceOnUse" color-interpolation-filters="sRGB">
<feFlood flood-opacity="0" result="BackgroundImageFix"/>
<feBlend mode="normal" in="SourceGraphic" in2="BackgroundImageFix" result="shape"/>
<feGaussianBlur stdDeviation="15" result="effect1_foregroundBlur_2_13"/>
</filter>
<clipPath id="clip0_2_13">
<rect width="2301" height="386" fill="white" transform="translate(-178)"/>
</clipPath>
</defs>
</svg>
