<svg width="396" height="1029" viewBox="0 0 396 1029" fill="none" xmlns="http://www.w3.org/2000/svg">
<rect opacity="0.7" width="396" height="1029" fill="black"/>
<g clip-path="url(#clip0_58_2)">
<path d="M307.432 -632H306.409H264.682H263.66H177.137H175.092H133.364H132.341H44.7949H43.7722H0V-592.625V-591.705V-553.25V-551.41V-474.502V-472.662V-435.127V-434.207V-394.711V-393.912V-315.962V-314.122V-276.587V-275.667V-236.579V-235.373V-197.204V-196.284V-157.829V-155.989V-79.0804V-77.2404V-39.7056V-38.7856V0.710632V1.50916V79.4593V81.2993V118.834V119.754V158.209V160.049V197.583V198.503V236.958V238.797V315.707V317.547V355.081V356.001V395.497V396.296V474.246V476.086V513.62V514.54V553.629V554.834V593.004V593.924V632.378V634.218V711.128V712.968V750.502V751.422V790.918V791.716V869.666V871.506V909.041V909.961V948.415V950.255V987.79V988.71V1029H43.7722H45.8177H88.5681H131.317H132.34H133.363H175.091H177.136H262.636H264.681H306.408H308.454H351.203H394.976H395.999V988.71V950.255V949.335V948.415V871.506V869.666V830.292H352.226V792.757H393.953V830.17H395.999V791.715V790.795V712.967V711.127V672.672V671.752V634.217V633.297V593.288V554.834V553.914V553.628V476.085V474.245V434.87H352.226V397.335H393.953V434.749H395.999V396.294V395.374V317.545V315.705V277.25V276.33V238.796V237.876V198.501V160.047V159.127V158.207V81.2974V79.4574V40.0827H352.226V2.54877H393.953V39.9612H395.999V1.50732V0.587341V-77.2422V-79.0822V-117.537V-118.457V-155.991V-156.911V-196.921V-235.374V-236.294V-236.58V-314.124V-315.964V-355.339H352.226V-392.873H393.953V-355.46H395.999V-393.914V-394.834V-472.664V-474.504V-512.958V-513.878V-551.41V-552.33V-632H307.432ZM393.954 -553.25H352.227H351.204H339.903V-573.026L393.954 -621.646V-553.25ZM393.954 -509.732L367.952 -486.342V-497.005L384.663 -512.037H393.954V-509.732ZM393.954 -395.753H351.204H339.903V-415.528L393.954 -464.149V-395.753ZM367.952 -353.498H381.77L367.952 -341.067V-353.498ZM371.032 -314.123L339.903 -286.121V-314.123H350.181H352.227H371.032ZM393.954 -237.214H351.204H339.903V-256.99L393.954 -305.61V-237.214ZM393.954 -114.311L367.952 -90.9216V-101.584L384.663 -116.617H393.954V-114.311ZM393.954 -0.332703H351.204H339.903V-20.1079L393.954 -68.7286V-0.332703ZM367.952 41.9217H381.77L367.952 54.3527V41.9217ZM371.032 81.2965L339.903 109.298V81.2965H350.181H352.227H371.032ZM393.954 165.958L339.903 214.578V190.649L373.925 160.045H393.954V165.958ZM393.954 280.474L367.952 303.864V293.201L384.663 278.169H393.954V280.474ZM393.954 394.452H351.204H339.903V374.678L393.954 326.057V394.452ZM367.952 436.707H381.77L367.952 449.138V436.707ZM371.032 476.082L339.903 504.084V476.082H350.181H352.227H371.032ZM393.954 552.991H351.204H339.903V533.216L393.954 484.596V552.991ZM393.954 675.895L367.952 699.284V688.622L384.663 673.589H393.954V675.895ZM393.954 789.872H351.204H339.903V770.097L393.954 721.477V789.872ZM367.952 832.128H381.77L367.952 844.559V832.128ZM371.032 871.503L339.903 899.505V871.503H350.181H352.227H371.032ZM393.954 956.163L339.903 1004.78V980.855L373.925 950.25H393.954V956.163ZM351.204 950.251H371.032L339.903 978.254V950.251H351.204ZM351.204 948.411H339.903V928.637L393.954 880.016V948.411H351.204ZM337.857 948.411H308.455V909.037V871.503H337.858V948.411H337.857ZM294.225 989.625L280.406 1002.06V989.625H294.225ZM280.406 1004.66L297.117 989.625H306.409V991.931L280.406 1015.32V1004.66ZM264.682 987.785V950.25H306.409V987.785H264.682ZM162.906 989.625L149.088 1002.06V989.625H162.906ZM149.088 1004.66L165.799 989.625H175.091V991.931L149.088 1015.32V1004.66ZM134.81 987.785L175.092 951.551V987.785H134.81ZM31.588 989.625L17.7695 1002.06V989.625H31.588ZM17.7695 1004.66L34.4804 989.625H43.7722V991.931L17.7695 1015.32V1004.66ZM31.588 910.877L17.7695 923.307V910.877H31.588ZM64.6232 792.753L33.4934 820.756V792.753H64.6232ZM31.588 594.84L17.7695 607.27V594.84H31.588ZM64.6232 397.333L33.4934 425.336V397.333H64.6232ZM31.588 199.42L17.7695 211.851V199.42H31.588ZM31.588 120.671L17.7695 133.102V120.671H31.588ZM64.6232 2.54785L33.4934 30.5497V2.54785H64.6232ZM31.588 -195.366L17.7695 -182.935V-195.366H31.588ZM64.6232 -392.872L33.4944 -364.871V-392.873H64.6232V-392.872ZM31.588 -590.785L17.7695 -578.355V-590.785H31.588ZM43.7722 -588.48L17.7695 -565.09V-575.753L34.4804 -590.785H43.7722V-588.48ZM17.7695 -562.488L43.7722 -585.878V-553.25H17.7695V-562.488ZM43.7722 -551.41H45.8177H64.6232L33.4934 -523.409V-551.41H43.7722ZM77.2666 -630.16H108.396L77.2666 -602.158V-630.16ZM77.2666 -573.026L131.318 -621.646V-592.625V-553.25H89.5908H88.5681H77.2666V-573.026ZM208.584 -630.16H239.714L208.584 -602.158V-630.16ZM208.584 -573.026L262.636 -621.646V-592.625V-553.25H220.908H219.886H208.584V-573.026ZM339.903 -630.16H371.032L339.903 -602.158V-630.16ZM350.181 -551.41V-545.499L296.129 -496.879V-520.807L330.152 -551.41H350.181ZM339.903 -234.74H371.032L339.903 -206.738V-234.74ZM339.903 555.466H371.032L339.903 583.468V555.466ZM280.406 939.175L306.409 915.785V948.411H280.406V939.175ZM306.409 913.183L280.406 936.573V925.909L297.117 910.877H306.409V913.183ZM280.406 923.307V910.876H294.225L280.406 923.307ZM278.361 948.411H264.682V910.877H278.361V948.411ZM262.637 948.411H208.585V928.637L262.637 880.016V909.037V948.411ZM133.364 948.411V910.877H147.043V948.411H133.364ZM88.5681 948.411H77.2666V928.637L131.318 880.016V909.037V948.411H88.5681ZM87.5453 871.503H89.5908H108.396L77.2666 899.505V871.503H87.5453ZM33.4944 823.358L67.5166 792.753H87.5463V798.666L33.4944 847.286V823.358ZM87.5453 712.964H89.5908H108.396L77.2666 740.966V712.964H87.5453ZM33.4944 664.819L67.5166 634.214H87.5463V640.127L33.4944 688.747V664.819ZM87.5453 476.082H89.5908H108.396L77.2666 504.084V476.082H87.5453ZM33.4944 427.937L67.5166 397.333H87.5463V403.245L33.4944 451.865V427.937ZM87.5453 317.543H89.5908H108.396L77.2666 345.545V317.543H87.5453ZM33.4944 269.398L67.5166 238.794H87.5463V244.706L33.4944 293.326V269.398ZM87.5453 81.2965H89.5908H108.396L77.2666 109.299V81.2965H87.5453ZM33.4944 33.1514L67.5166 2.54785H87.5463V8.45972L33.4944 57.0804V33.1514ZM87.5453 -77.2422H89.5908H108.396L77.2666 -49.2404V-77.2422H87.5453ZM33.4944 -125.387L67.5166 -155.991H87.5463V-150.079L33.4944 -101.458V-125.387ZM87.5453 -314.123H89.5908H108.396L77.2666 -286.121V-314.123H87.5453ZM33.4944 -362.269L67.5166 -392.873H87.5463V-386.961L33.4944 -338.341V-362.269ZM87.5453 -472.663H89.5908H108.396L77.2666 -444.661V-472.663H87.5453ZM89.5908 -551.41H131.317V-513.877H89.5908V-551.41ZM175.091 -588.48L149.088 -565.09V-575.753L165.799 -590.785H175.091V-588.48ZM262.637 -308.212L208.585 -259.591V-283.52L242.607 -314.124H262.637V-308.212ZM280.406 -246.451L306.409 -269.841V-237.213H280.406V-246.451ZM306.409 -193.06L280.406 -169.67V-180.333L297.117 -195.366H306.409V-193.06ZM280.406 -182.935V-195.366H294.225L280.406 -182.935ZM278.361 -157.831H264.682V-195.366H278.361V-157.831ZM262.637 87.2084L208.585 135.829V111.901L242.607 81.2965H262.637V87.2084ZM306.409 201.725L280.406 225.114V214.452L297.117 199.419H306.409V201.725ZM280.406 211.85V199.419H294.225L280.406 211.85ZM278.361 236.954H264.682V199.419H278.361V236.954ZM262.637 481.994L208.585 530.615V506.686L242.607 476.082H262.637V481.994ZM280.406 543.753L306.409 520.364V552.991H280.406V543.753ZM306.409 597.146L280.406 620.536V609.872L297.117 594.84H306.409V597.146ZM280.406 607.27V594.84H294.225L280.406 607.27ZM278.361 632.374H264.682V594.84H278.361V632.374ZM262.637 877.415L208.585 926.035V902.106L242.607 871.503H262.637V877.415ZM236.633 869.663V860.425L262.636 837.035V869.663H236.633ZM262.637 834.433L236.634 857.823V847.16L253.345 832.128H262.637V834.433ZM236.633 844.558V832.128H250.452L236.633 844.558ZM234.588 869.663H220.908V832.128H234.588V869.663ZM77.2666 902.106L111.289 871.503H131.317V877.415L77.2655 926.035V902.106H77.2666ZM119.133 832.128L105.315 844.559V832.128H119.133ZM77.2666 743.567L111.289 712.963H131.317V718.875L77.2655 767.496V743.567H77.2666ZM119.133 673.589L105.315 686.02V673.589H119.133ZM77.2666 586.069L111.289 555.466H131.317V561.378L77.2655 609.998V586.069H77.2666ZM77.2666 506.686L111.289 476.082H131.317V481.994L77.2655 530.615V506.686H77.2666ZM119.133 436.707L105.315 449.138V436.707H119.133ZM77.2666 348.147L111.289 317.543H131.317V323.455L77.2655 372.076V348.147H77.2666ZM119.133 278.169L105.315 290.6V278.169H119.133ZM77.2666 190.649L111.289 160.045H131.317V165.957L77.2655 214.578V190.649H77.2666ZM77.2666 111.901L111.289 81.2965H131.317V87.2084L77.2655 135.829V111.901H77.2666ZM119.133 41.9217L105.315 54.3527V41.9217H119.133ZM77.2666 -46.6387L111.289 -77.2422H131.317V-71.3304L77.2655 -22.7097V-46.6387H77.2666ZM119.133 -116.617L105.315 -104.186V-116.617H119.133ZM77.2666 -204.136L111.289 -234.74H131.317V-228.829L77.2655 -180.208V-204.136H77.2666ZM77.2666 -283.52L111.289 -314.124H131.317V-308.212L77.2655 -259.591V-283.52H77.2666ZM119.133 -353.498L105.315 -341.067V-353.498H119.133ZM77.2666 -442.059L111.289 -472.663H131.317V-466.751L77.2655 -418.13V-442.059H77.2666ZM119.133 -512.037L105.315 -499.606V-512.037H119.133ZM131.318 -509.732L105.316 -486.342V-497.005L122.027 -512.037H131.318V-509.732ZM105.315 -483.739L131.317 -507.129V-474.502H105.315V-483.739ZM133.364 -472.663H173.645L133.364 -436.429V-472.663ZM220.909 -512.037H234.589V-474.502H220.909V-512.037ZM262.637 -466.751L208.585 -418.13V-442.059L242.607 -472.663H262.637V-466.751ZM239.714 -314.123L208.584 -286.121V-314.123H218.863H220.908H239.714ZM177.136 -315.963H175.091H164.812V-335.738L218.864 -384.358V-355.338V-315.963H177.136ZM262.637 -71.3304L208.585 -22.7097V-46.6387L242.607 -77.2422H262.637V-71.3304ZM239.714 81.2965L208.584 109.299V81.2965H218.863H220.908H239.714ZM177.136 79.4565H175.091H164.812V59.6822L218.864 11.0615V40.0817V79.4565H177.136ZM262.637 323.455L208.585 372.076V348.147L242.607 317.543H262.637V323.455ZM239.714 476.082L208.584 504.084V476.082H218.863H220.908H239.714ZM177.136 474.242H175.091H164.812V454.467L218.864 405.846V434.867V474.242H177.136ZM262.637 718.876L208.585 767.496V743.567L242.607 712.964H262.637V718.876ZM149.088 543.753L175.091 520.364V552.991H149.088V543.753ZM175.091 517.762L149.088 541.151V530.489L165.799 515.456H175.091V517.762ZM149.088 527.887V515.456H162.906L149.088 527.887ZM147.042 552.991H133.363V515.456H147.042V552.991ZM175.091 593H134.81L175.092 556.766V593H175.091ZM162.906 594.84L149.088 607.27V594.84H162.906ZM149.088 609.872L165.799 594.84H175.091V597.146L149.088 620.536V609.872ZM133.364 594.84H147.043V632.374H133.364V594.84ZM149.088 623.138L175.091 599.749V632.375H149.088V623.138ZM175.091 634.214H177.136H195.942L164.812 662.217V634.214H175.091ZM164.812 691.349L218.864 642.729V671.749V711.124H177.137H175.092H164.813V691.349H164.812ZM239.714 712.964L208.584 740.966V712.964H218.863H220.908H239.714ZM133.364 752.339H147.043V789.873H133.364V752.339ZM149.088 780.636L175.091 757.246V789.873H149.088V780.636ZM175.091 754.643L149.088 778.033V767.369L165.799 752.338H175.091V754.643ZM149.088 764.768V752.338H162.906L149.088 764.768ZM134.81 750.499L175.092 714.265V750.499H134.81ZM164.812 792.753H195.942L164.812 820.756V792.753ZM177.136 789.872V751.418V750.498V712.963H206.539V789.872H177.136ZM236.633 711.124V701.886L262.636 678.496V711.124H236.633ZM262.637 675.895L236.634 699.284V688.621L253.345 673.589H262.637V675.895ZM236.633 686.019V673.589H250.452L236.633 686.019ZM234.588 711.124H220.908V673.589H234.588V711.124ZM220.909 634.214H261.191L220.909 670.448V634.214ZM218.864 640.127L164.812 688.747V664.819L198.834 634.214H218.863V640.127H218.864ZM177.136 632.374V593.92V593V555.466H206.539V632.374H177.136ZM208.584 555.466H239.714L208.584 583.468V555.466ZM208.584 586.069L242.606 555.466H262.636V561.378L208.584 609.998V586.069ZM134.81 513.616L175.092 477.383V513.616H134.81ZM162.906 199.42L149.088 211.851V199.42H162.906ZM149.088 214.452L165.799 199.419H175.091V201.725L149.088 225.114V214.452ZM134.81 197.58L175.092 161.347V197.58H134.81ZM133.364 199.42H147.043V236.955H133.364V199.42ZM149.088 227.717L175.091 204.328V236.955H149.088V227.717ZM175.091 238.794H177.136H195.942L164.812 266.797V238.794H175.091ZM164.812 295.928L218.864 247.307V276.329V315.703H177.137H175.092H164.813V295.928H164.812ZM239.714 317.543L208.584 345.545V317.543H218.863H220.908H239.714ZM164.812 427.937L198.834 397.333H218.863V403.245L164.811 451.865V427.937H164.812ZM133.364 356.917H147.043V394.452H133.364V356.917ZM149.088 385.214L175.091 361.826V394.452H149.088V385.214ZM175.091 359.224L149.088 382.613V371.95L165.799 356.917H175.091V359.224ZM149.088 369.348V356.917H162.906L149.088 369.348ZM134.81 355.077L175.092 318.844V355.077H134.81ZM195.942 397.333L164.812 425.336V397.333H195.942ZM177.136 394.452V355.997V355.077V317.543H206.539V394.452H177.136ZM236.633 315.703V306.466L262.636 283.076V315.703H236.633ZM262.637 280.474L236.634 303.864V293.2L253.345 278.169H262.637V280.474ZM236.633 290.6V278.17H250.452L236.633 290.6ZM234.588 315.703H220.908V278.169H234.588V315.703ZM220.909 238.794H261.191L220.909 275.028V238.794ZM218.864 244.706L164.812 293.326V269.398L198.834 238.794H218.863V244.706H218.864ZM206.539 236.954H177.136V198.499V197.579V160.045H206.539V236.954ZM133.364 120.671H147.043V158.206H133.364V120.671ZM175.091 122.977L149.088 146.367V135.704L165.799 120.671H175.091V122.977ZM149.088 133.102V120.671H162.906L149.088 133.102ZM149.088 148.968L175.091 125.579V158.206H149.088V148.968ZM134.81 118.831L175.092 82.5974V118.831H134.81ZM149.088 -246.451L175.091 -269.841V-237.213H149.088V-246.451ZM175.091 -272.444L149.088 -249.053V-259.716L165.799 -274.748H175.091V-272.444ZM149.088 -262.319V-274.749H162.906L149.088 -262.319ZM147.042 -237.214H133.363V-274.749H147.042V-237.214ZM175.091 -197.206H134.81L175.092 -233.44V-197.206H175.091ZM162.906 -195.366L149.088 -182.935V-195.366H162.906ZM149.088 -180.333L165.799 -195.366H175.091V-193.06L149.088 -169.67V-180.333ZM133.364 -195.366H147.043V-157.831H133.364V-195.366ZM149.088 -167.068L175.091 -190.458V-157.83H149.088V-167.068ZM175.091 -155.991H177.136H195.942L164.812 -127.989V-155.991H175.091ZM164.812 -98.8566L218.864 -147.477V-118.457V-79.0822H177.137H175.092H164.813V-98.8566H164.812ZM239.714 -77.2422L208.584 -49.2404V-77.2422H218.863H220.908H239.714ZM164.812 33.1514L198.834 2.54785H218.863V8.45972L164.811 57.0804V33.1514H164.812ZM133.364 -37.8674H147.043V-0.332703H133.364V-37.8674ZM149.088 -9.57031L175.091 -32.9602V-0.332703H149.088V-9.57031ZM175.091 -35.562L149.088 -12.1721V-22.8348L165.799 -37.8674H175.091V-35.562ZM149.088 -25.4374V-37.8684H162.906L149.088 -25.4374ZM134.81 -39.7074L175.092 -75.9413V-39.7074H134.81ZM195.942 2.54785L164.812 30.5497V2.54785H195.942ZM177.136 -0.332703V-38.7874V-39.7074V-77.2422H206.539V-0.332703H177.136ZM236.633 -79.0822V-88.3199L262.636 -111.709V-79.0822H236.633ZM262.637 -114.311L236.634 -90.9216V-101.585L253.345 -116.617H262.637V-114.311ZM236.633 -104.187V-116.617H250.452L236.633 -104.187ZM234.588 -79.0822H220.908V-116.617H234.588V-79.0822ZM220.909 -155.991H261.191L220.909 -119.758V-155.991ZM218.864 -150.079L164.812 -101.458V-125.387L198.834 -155.991H218.863V-150.079H218.864ZM177.136 -157.831V-196.286V-197.206V-234.74H206.539V-157.831H177.136ZM208.584 -234.74H239.714L208.584 -206.737V-234.74ZM208.584 -204.136L242.606 -234.74H262.636V-228.829L208.584 -180.208V-204.136ZM134.81 -276.589L175.092 -312.823V-276.589H134.81ZM164.812 -362.269L198.834 -392.873H218.863V-386.961L164.811 -338.341V-362.269H164.812ZM133.364 -433.288H147.043V-395.753H133.364V-433.288ZM149.088 -404.991L175.091 -428.381V-395.753H149.088V-404.991ZM175.091 -430.982L149.088 -407.592V-418.256L165.799 -433.288H175.091V-430.982ZM149.088 -420.858V-433.288H162.906L149.088 -420.858ZM134.81 -435.128L175.092 -471.362V-435.128H134.81ZM195.942 -392.872L164.812 -364.87V-392.872H195.942ZM236.633 -474.503V-483.74L262.636 -507.13V-474.503H236.633ZM262.637 -509.732L236.634 -486.342V-497.006L253.345 -512.037H262.637V-509.732ZM236.633 -499.607V-512.037H250.452L236.633 -499.607ZM239.714 -472.663L208.584 -444.661V-472.663H218.863H220.908H239.714ZM206.539 -395.753H177.136V-434.208V-435.128V-472.663H206.539V-395.753ZM133.364 -392.872H162.767V-315.963H133.364V-355.338V-392.872ZM131.318 -351.192L105.316 -327.802V-338.465L122.027 -353.498H131.318V-351.192ZM105.315 -325.201L131.317 -348.591V-315.963H105.315V-325.201ZM133.364 -314.123H173.645L133.364 -277.889V-314.123ZM133.364 -234.74H173.645L133.364 -198.506V-234.74ZM133.364 -155.991H162.767V-79.0822H133.364V-118.457V-155.991ZM131.318 -114.311L105.316 -90.9216V-101.584L122.027 -116.617H131.318V-114.311ZM105.315 -88.3199L131.317 -111.709V-79.0822H105.315V-88.3199ZM133.364 -77.2422H173.645L133.364 -41.0083V-77.2422ZM133.364 2.54785H162.767V79.4565H133.364V40.0817V2.54785ZM131.318 44.2281L105.316 67.6171V56.9544L122.027 41.9217H131.318V44.2281ZM105.315 70.2198L131.317 46.8308V79.4574H105.315V70.2198ZM133.364 81.2965H173.645L133.364 117.53V81.2965ZM133.364 160.046H173.645L133.364 196.279V160.046ZM133.364 238.794H162.767V315.703H133.364V276.329V238.794ZM131.318 280.474L105.316 303.864V293.201L122.027 278.169H131.318V280.474ZM105.315 306.467L131.317 283.077V315.704H105.315V306.467ZM133.364 317.543H173.645L133.364 353.776V317.543ZM133.364 397.333H162.767V474.243H133.364V434.868V397.333ZM131.318 439.013L105.316 462.403V451.74L122.027 436.707H131.318V439.013ZM105.315 465.005L131.317 441.616V474.243H105.315V465.005ZM133.364 476.082H173.645L133.364 512.315V476.082ZM133.364 555.466H173.645L133.364 591.7V555.466ZM133.364 634.214H162.767V711.124H133.364V671.749V634.214ZM131.318 675.895L105.316 699.284V688.622L122.027 673.589H131.318V675.895ZM105.315 701.886L131.317 678.496V711.124H105.315V701.886ZM133.364 712.964H173.645L133.364 749.198V712.964ZM131.318 834.433L105.316 857.823V847.161L122.027 832.128H131.318V834.433ZM105.315 860.425L131.317 837.035V869.663H105.315V860.425ZM133.364 871.503H173.645L133.364 907.737V871.503ZM133.364 869.663V830.288V792.753H162.767V869.663H133.364ZM164.812 823.358L198.834 792.753H218.863V798.666L164.811 847.286V823.358H164.812ZM220.909 792.753H261.191L220.909 828.987V792.753ZM280.406 780.636L306.409 757.246V789.873H280.406V780.636ZM306.409 754.643L280.406 778.033V767.369L297.117 752.338H306.409V754.643ZM280.406 764.768V752.338H294.225L280.406 764.768ZM278.361 789.872H264.682V752.338H278.361V789.872ZM262.637 789.872H208.585V770.097L262.637 721.477V750.498V789.872ZM222.356 671.749L262.637 635.515V671.749H222.356ZM262.637 632.374H220.909H219.887H208.585V612.6L262.637 563.979V593V632.374ZM177.136 552.991V514.536V513.616V476.082H206.539V552.991H177.136ZM236.633 474.242V465.005L262.636 441.615V474.242H236.633ZM262.637 439.013L236.634 462.403V451.739L253.345 436.707H262.637V439.013ZM236.633 449.138V436.708H250.452L236.633 449.138ZM234.588 474.242H220.908V436.707H234.588V474.242ZM220.909 397.333H261.191L220.909 433.567V397.333ZM280.406 385.214L306.409 361.826V394.452H280.406V385.214ZM306.409 359.224L280.406 382.613V371.95L297.117 356.917H306.409V359.224ZM280.406 369.348V356.917H294.225L280.406 369.348ZM278.361 394.452H264.682V356.917H278.361V394.452ZM262.637 394.452H208.585V374.678L262.637 326.057V355.077V394.452ZM222.356 276.329L262.637 240.095V276.329H222.356ZM262.637 236.954H220.909H219.887H208.585V217.18L262.637 168.559V197.579V236.954ZM262.637 165.958L208.585 214.579V190.65L242.607 160.046H262.637V165.958ZM208.584 188.047V160.045H239.714L208.584 188.047ZM177.136 158.206V119.751V118.831V81.2965H206.539V158.206H177.136ZM236.633 79.4565V70.2189L262.636 46.8299V79.4565H236.633ZM262.637 44.2281L236.634 67.6171V56.9535L253.345 41.9217H262.637V44.2281ZM236.633 54.3527V41.9227H250.452L236.633 54.3527ZM234.588 79.4565H220.908V41.9217H234.588V79.4565ZM220.909 2.54785H261.191L220.909 38.7808V2.54785ZM280.406 -9.57031L306.409 -32.9602V-0.332703H280.406V-9.57031ZM306.409 -35.562L280.406 -12.1721V-22.8348L297.117 -37.8674H306.409V-35.562ZM280.406 -25.4374V-37.8684H294.225L280.406 -25.4374ZM278.361 -0.332703H264.682V-37.8674H278.361V-0.332703ZM262.637 -0.332703H208.585V-20.1079L262.637 -68.7286V-39.7074V-0.332703ZM222.356 -118.457L262.637 -154.69V-118.457H222.356ZM262.637 -157.831H220.909H219.887H208.585V-177.606L262.637 -226.227V-197.206V-157.831ZM177.136 -237.214V-275.669V-276.589V-314.124H206.539V-237.214H177.136ZM236.633 -315.963V-325.201L262.636 -348.591V-315.963H236.633ZM262.637 -351.192L236.634 -327.802V-338.466L253.345 -353.498H262.637V-351.192ZM236.633 -341.068V-353.498H250.452L236.633 -341.068ZM234.588 -315.963H220.908V-353.498H234.588V-315.963ZM220.909 -392.872H261.191L220.909 -356.639V-392.872ZM280.406 -404.991L306.409 -428.381V-395.753H280.406V-404.991ZM306.409 -430.982L280.406 -407.592V-418.256L297.117 -433.288H306.409V-430.982ZM280.406 -420.858V-433.288H294.225L280.406 -420.858ZM278.361 -395.753H264.682V-433.288H278.361V-395.753ZM262.637 -395.753H208.585V-415.528L262.637 -464.149V-435.128V-395.753ZM222.356 -513.877L262.637 -550.11V-513.877H222.356ZM220.909 -515.177V-551.41H261.191L220.909 -515.177ZM218.864 -513.877V-474.502H177.137H175.092H164.813V-494.277L218.865 -542.897V-513.877H218.864ZM162.766 -474.503H133.363V-513.877V-551.41H162.766V-474.503ZM149.088 -578.355V-590.785H162.906L149.088 -578.355ZM147.042 -553.25H133.363V-590.785H147.042V-553.25ZM89.5908 -512.037H103.269V-474.502H89.5908V-512.037ZM77.2666 -415.528L131.318 -464.149V-435.128V-395.753H88.5681H77.2666V-415.528ZM89.5908 -392.872H131.317V-355.338H89.5908V-392.872ZM89.5908 -353.498H103.269V-315.963H89.5908V-353.498ZM77.2666 -256.989L131.318 -305.609V-276.588V-237.213H88.5681H77.2666V-256.989ZM108.396 -234.74L77.2666 -206.737V-234.74H108.396ZM77.2666 -177.605L131.318 -226.226V-197.205V-157.83H89.5908H88.5681H77.2666V-177.605ZM89.5908 -155.991H131.317V-118.457H89.5908V-155.991ZM89.5908 -116.617H103.269V-79.0822H89.5908V-116.617ZM77.2666 -20.1079L131.318 -68.7286V-39.7074V-0.332703H88.5681H77.2666V-20.1079ZM89.5908 2.54785H131.317V40.0817H89.5908V2.54785ZM89.5908 41.9217H103.269V79.4565H89.5908V41.9217ZM77.2666 138.431L131.318 89.8101V118.831V158.206H88.5681H77.2666V138.431ZM88.5681 160.046H108.396L77.2666 188.048V160.046H88.5681ZM77.2666 217.18L131.318 168.56V197.58V236.955H89.5908H88.5681H77.2666V217.18ZM89.5908 238.794H131.317V276.329H89.5908V238.794ZM89.5908 278.169H103.269V315.703H89.5908V278.169ZM77.2666 374.678L131.318 326.057V355.077V394.452H88.5681H77.2666V374.678ZM89.5908 397.333H131.317V434.868H89.5908V397.333ZM89.5908 436.707H103.269V474.242H89.5908V436.707ZM77.2666 533.216L131.318 484.596V513.616V552.991H88.5681H77.2666V533.216ZM108.396 555.466L77.2666 583.468V555.466H108.396ZM77.2666 612.6L131.318 563.979V593V632.374H89.5908H88.5681H77.2666V612.6ZM89.5908 634.214H131.317V671.749H89.5908V634.214ZM89.5908 673.589H103.269V711.124H89.5908V673.589ZM77.2666 770.098L131.318 721.477V750.499V789.873H88.5681H77.2666V770.098ZM89.5908 792.753H131.317V830.288H89.5908V792.753ZM89.5908 832.128H103.269V869.663H89.5908V832.128ZM149.088 910.877H162.906L149.088 923.307V910.877ZM149.088 925.909L165.799 910.877H175.091V913.183L149.088 936.573V925.909ZM134.81 909.037L175.092 872.803V909.037H134.81ZM175.091 869.663H164.812V849.887L218.864 801.268V830.288V869.663H177.137H175.091ZM218.864 871.503H220.909H239.715L208.585 899.505V871.503H218.864ZM222.356 830.288L262.637 794.054V830.288H222.356ZM296.13 792.753H327.26L296.13 820.756V792.753ZM308.455 789.872V750.498V712.963H337.858V789.872H308.455ZM306.409 750.499H264.682V712.964H306.409V750.499ZM264.682 711.124V672.669V671.749V634.214H294.085V711.124H264.682ZM296.13 634.214H306.409H308.455H327.26L296.13 662.217V634.214ZM280.406 632.374V623.138L306.409 599.748V632.374H280.406ZM264.682 593V555.466H306.409V593H264.682ZM306.409 517.762L280.406 541.151V530.489L297.117 515.456H306.409V517.762ZM280.406 527.887V515.456H294.225L280.406 527.887ZM278.361 552.991H264.682V515.456H278.361V552.991ZM262.637 552.991H208.585V533.216L262.637 484.596V513.616V552.991ZM222.356 434.867L262.637 398.633V434.867H222.356ZM296.13 397.333H327.26L296.13 425.336V397.333ZM308.455 394.452V355.077V317.543H337.858V394.452H308.455ZM306.409 355.077H264.682V317.543H306.409V355.077ZM264.682 315.703V277.249V276.329V238.794H294.085V315.703H264.682ZM296.13 238.794H306.409H308.455H327.26L296.13 266.797V238.794ZM280.406 236.954V227.716L306.409 204.327V236.954H280.406ZM264.682 197.58V160.046H306.409V197.58H264.682ZM280.406 148.968L306.409 125.579V158.206H280.406V148.968ZM306.409 122.977L280.406 146.367V135.704L297.117 120.671H306.409V122.977ZM280.406 133.102V120.671H294.225L280.406 133.102ZM278.361 158.206H264.682V120.671H278.361V158.206ZM262.637 158.206H208.585V138.431L262.637 89.8101V118.831V158.206ZM222.356 40.0817L262.637 3.84875V40.0817H222.356ZM296.13 2.54785H327.26L296.13 30.5497V2.54785ZM308.455 -0.332703V-39.7074V-77.2422H337.858V-0.332703H308.455ZM306.409 -39.7074H264.682V-77.2422H306.409V-39.7074ZM264.682 -79.0822V-117.537V-118.457V-155.991H294.085V-79.0822H264.682ZM296.13 -155.991H306.409H308.455H327.26L296.13 -127.989V-155.991ZM280.406 -157.831V-167.069L306.409 -190.458V-157.831H280.406ZM264.682 -197.206V-234.74H306.409V-197.206H264.682ZM306.409 -272.444L280.406 -249.054V-259.717L297.117 -274.749H306.409V-272.444ZM280.406 -262.319V-274.749H294.225L280.406 -262.319ZM278.361 -237.214H264.682V-274.749H278.361V-237.214ZM262.637 -237.214H208.585V-256.99L262.637 -305.61V-276.589V-237.214ZM222.356 -355.338L262.637 -391.571V-355.338H222.356ZM296.13 -392.872H327.26L296.13 -364.871V-392.872ZM308.455 -395.753V-435.128V-472.663H337.858V-395.753H308.455ZM306.409 -435.128H264.682V-472.663H306.409V-435.128ZM264.682 -474.503V-512.957V-513.877V-551.41H294.085V-474.502H264.682V-474.503ZM296.13 -523.41V-551.41H306.409H308.455H327.26L296.13 -523.41ZM280.406 -553.25V-562.488L306.409 -585.878V-553.25H280.406ZM306.409 -588.48L280.406 -565.09V-575.753L297.117 -590.785H306.409V-588.48ZM280.406 -578.355V-590.785H294.225L280.406 -578.355ZM278.361 -553.25H264.682V-590.785H278.361V-553.25ZM218.864 -551.41V-545.499L164.812 -496.879V-520.807L198.834 -551.41H218.864ZM164.812 -523.41V-551.41H175.091H177.136H195.942L164.812 -523.41ZM149.088 -553.25V-562.488L175.091 -585.878V-553.25H149.088ZM134.81 -592.625L175.092 -628.859V-592.625H134.81ZM87.5453 -551.41V-545.499L33.4934 -496.879V-520.807L67.5156 -551.41H87.5453ZM33.4944 -494.278L87.5463 -542.898V-513.877V-474.503H44.7949H43.7722H33.4934V-494.278H33.4944ZM45.8177 -472.663H75.221V-395.753H45.8177V-435.128V-472.663ZM43.7722 -430.982L17.7695 -407.592V-418.256L34.4804 -433.288H43.7722V-430.982ZM17.7695 -420.858V-433.288H31.588L17.7695 -420.858ZM15.7239 -395.753H2.04552V-433.288H15.7239V-395.753ZM17.7695 -404.991L43.7722 -428.381V-395.753H17.7695V-404.991ZM33.4944 -335.739L87.5463 -384.359V-355.339V-315.964H44.7949H43.7722H33.4934V-335.739H33.4944ZM45.8177 -314.123H75.221V-237.213H45.8177V-276.588V-314.123ZM43.7722 -272.444L17.7695 -249.053V-259.716L34.4804 -274.748H43.7722V-272.444ZM17.7695 -262.319V-274.749H31.588L17.7695 -262.319ZM15.7239 -237.214H2.04552V-274.749H15.7239V-237.214ZM17.7695 -246.451L43.7722 -269.841V-237.213H17.7695V-246.451ZM45.8177 -234.74H75.221V-157.83H45.8177V-197.205V-234.74ZM43.7722 -193.06L17.7695 -169.67V-180.333L34.4804 -195.366H43.7722V-193.06ZM17.7695 -167.068L43.7722 -190.458V-157.83H17.7695V-167.068ZM43.7722 -155.991H45.8177H64.6232L33.4934 -127.989V-155.991H43.7722ZM33.4944 -98.8566L87.5463 -147.477V-118.457V-79.0822H44.7949H43.7722H33.4934V-98.8566H33.4944ZM45.8177 -77.2422H75.221V-0.332703H45.8177V-39.7074V-77.2422ZM43.7722 -35.562L17.7695 -12.1721V-22.8348L34.4804 -37.8674H43.7722V-35.562ZM17.7695 -25.4374V-37.8684H31.588L17.7695 -25.4374ZM15.7239 -0.332703H2.04552V-37.8674H15.7239V-0.332703ZM17.7695 -9.57031L43.7722 -32.9602V-0.332703H17.7695V-9.57031ZM33.4944 59.6822L87.5463 11.0615V40.0817V79.4565H44.7949H43.7722H33.4934V59.6822H33.4944ZM45.8177 81.2965H75.221V158.206H45.8177V118.831V81.2965ZM43.7722 122.977L17.7695 146.367V135.704L34.4804 120.671H43.7722V122.977ZM17.7695 148.968L43.7722 125.579V158.206H17.7695V148.968ZM45.8177 160.046H75.221V236.955H45.8177V197.58V160.046ZM43.7722 201.725L17.7695 225.114V214.452L34.4804 199.419H43.7722V201.725ZM17.7695 227.717L43.7722 204.328V236.955H17.7695V227.717ZM43.7722 238.794H45.8177H64.6232L33.4944 266.797V238.794H43.7722ZM33.4944 295.928L87.5463 247.307V276.329V315.703H44.7949H43.7722H33.4934V295.928H33.4944ZM45.8177 317.543H75.221V394.452H45.8177V355.077V317.543ZM43.7722 359.224L17.7695 382.613V371.95L34.4804 356.917H43.7722V359.224ZM17.7695 369.348V356.917H31.588L17.7695 369.348ZM15.7239 394.452H2.04552V356.917H15.7239V394.452ZM17.7695 385.214L43.7722 361.826V394.452H17.7695V385.214ZM33.4944 454.467L87.5463 405.846V434.867V474.242H44.7949H43.7722H33.4934V454.467H33.4944ZM45.8177 476.082H75.221V552.991H45.8177V513.616V476.082ZM43.7722 517.762L17.7695 541.151V530.489L34.4804 515.456H43.7722V517.762ZM17.7695 527.887V515.456H31.588L17.7695 527.887ZM15.7239 552.991H2.04552V515.456H15.7239V552.991ZM17.7695 543.753L43.7722 520.364V552.991H17.7695V543.753ZM45.8177 555.466H75.221V632.374H45.8177V593V555.466ZM43.7722 597.146L17.7695 620.536V609.872L34.4804 594.84H43.7722V597.146ZM17.7695 623.138L43.7722 599.749V632.375H17.7695V623.138ZM43.7722 634.214H45.8177H64.6232L33.4934 662.217V634.214H43.7722ZM33.4944 691.349L87.5463 642.729V671.749V711.124H44.7949H43.7722H33.4934V691.349H33.4944ZM45.8177 712.964H75.221V789.873H45.8177V750.499V712.964ZM43.7722 754.643L17.7695 778.033V767.369L34.4804 752.338H43.7722V754.643ZM17.7695 764.768V752.338H31.588L17.7695 764.768ZM15.7239 789.872H2.04552V752.338H15.7239V789.872ZM17.7695 780.636L43.7722 757.246V789.873H17.7695V780.636ZM33.4944 849.887L87.5463 801.268V830.288V869.663H44.7949H43.7722H33.4934V849.887H33.4944ZM43.7722 913.183L17.7695 936.573V925.909L34.4804 910.877H43.7722V913.183ZM17.7695 939.175L43.7722 915.785V948.411H17.7695V939.175ZM45.8177 909.037V871.503H75.221V948.411H45.8177V909.037ZM88.5681 950.251H108.396L77.2666 978.254V950.251H88.5681ZM77.2666 980.855L111.289 950.25H131.317V956.163L77.2655 1004.78V980.855H77.2666ZM133.364 950.251H173.645L133.364 986.485V950.251ZM149.088 948.411V939.175L175.091 915.785V948.411H149.088ZM177.136 909.957V909.037V871.503H206.539V948.411H177.136V909.957ZM239.714 950.251L208.584 978.254V950.251H239.714ZM208.584 980.855L242.606 950.25H262.636V956.163L208.584 1004.78V980.855ZM306.409 909.037H264.682V871.503H306.409V909.037ZM264.682 869.663V831.208V830.288V792.753H294.085V869.663H264.682ZM296.13 823.358L330.153 792.753H350.181V798.666L296.129 847.286V823.358H296.13ZM339.903 712.964H350.181H352.227H371.032L339.903 740.966V712.964ZM367.952 686.02V673.589H381.77L367.952 686.02ZM365.906 711.124H352.227V673.589H365.906V711.124ZM350.181 711.124H307.432H306.409H296.13V691.349L350.182 642.729V671.749V711.124H350.181ZM350.181 640.127L296.129 688.747V664.819L330.152 634.214H350.18V640.127H350.181ZM308.455 632.374V593V555.466H337.858V632.374H308.455ZM339.903 586.069L373.925 555.466H393.954V561.378L339.903 609.998V586.069ZM337.857 552.991H308.455V513.616V476.082H337.858V552.991H337.857ZM306.409 513.616H264.682V476.082H306.409V513.616ZM264.682 474.242V435.787V434.867V397.333H294.085V474.242H264.682ZM296.13 427.937L330.153 397.333H350.181V403.245L296.129 451.865V427.937H296.13ZM339.903 317.543H350.181H352.227H371.032L339.903 345.545V317.543ZM367.952 290.6V278.169H381.77L367.952 290.6ZM365.906 315.703H352.227V278.169H365.906V315.703ZM350.181 315.703H307.432H306.409H296.13V295.928L350.182 247.307V276.329V315.703H350.181ZM350.181 244.706L296.129 293.326V269.398L330.152 238.794H350.18V244.706H350.181ZM308.455 236.954V197.579V160.045H337.858V236.954H308.455ZM339.903 160.046H351.204H371.032L339.903 188.048V160.046ZM351.204 158.206H339.903V138.431L393.954 89.8101V158.206H351.204ZM337.857 158.206H308.455V118.831V81.2965H337.858V158.206H337.857ZM306.409 118.831H264.682V81.2965H306.409V118.831ZM264.682 79.4565V41.0017V40.0817V2.54785H294.085V79.4565H264.682ZM296.13 33.1514L330.153 2.54785H350.181V8.45972L296.129 57.0804V33.1514H296.13ZM339.903 -77.2422H350.181H352.227H371.032L339.903 -49.2404V-77.2422ZM367.952 -104.186V-116.617H381.77L367.952 -104.186ZM365.906 -79.0822H352.227V-116.617H365.906V-79.0822ZM350.181 -79.0822H307.432H306.409H296.13V-98.8566L350.182 -147.477V-118.457V-79.0822H350.181ZM350.181 -150.079L296.13 -101.458V-125.387L330.153 -155.991H350.181V-150.079ZM308.455 -157.831V-197.206V-234.74H337.858V-157.831H308.455ZM339.903 -204.136L373.925 -234.74H393.954V-228.829L339.903 -180.208V-204.136ZM337.857 -237.214H308.455V-276.589V-314.124H337.858V-237.214H337.857ZM306.409 -276.589H264.682V-314.124H306.409V-276.589ZM264.682 -315.963V-354.418V-355.338V-392.872H294.085V-315.963H264.682ZM296.13 -362.269L330.153 -392.873H350.181V-386.961L296.129 -338.341V-362.269H296.13ZM339.903 -472.663H350.181H352.227H371.032L339.903 -444.661V-472.663ZM367.952 -499.607V-512.037H381.77L367.952 -499.607ZM365.906 -474.503H352.227V-512.037H365.906V-474.503ZM350.181 -474.503H307.432H306.409H296.13V-494.277L350.182 -542.897V-513.877V-474.503H350.181ZM393.954 -624.248L339.903 -575.627V-599.556L373.925 -630.16H393.954V-624.248ZM308.455 -630.16H337.858V-553.25H308.455V-592.625V-630.16ZM306.409 -630.16V-592.625H264.682V-630.16H306.409ZM262.637 -624.248L208.585 -575.627V-599.556L242.607 -630.16H262.637V-624.248ZM177.136 -630.16H206.539V-553.25H177.136V-591.705V-592.625V-630.16ZM173.644 -630.16L133.363 -593.926V-630.16H173.644ZM131.318 -624.248L77.2666 -575.627V-599.556L111.289 -630.16H131.317V-624.248H131.318ZM45.8177 -630.16H75.221V-553.25H45.8177V-592.625V-630.16ZM2.04552 -630.16H43.7722V-592.625H2.04552V-630.16ZM2.04552 -590.785H15.7239V-553.25H2.04552V-590.785ZM2.04552 -551.41H31.4489V-474.502H2.04552V-551.41ZM2.04552 -472.663H43.7722V-435.128H2.04552V-472.663ZM2.04552 -392.872H31.4489V-315.963H2.04552V-392.872ZM2.04552 -314.123H43.7722V-276.588H2.04552V-314.123ZM2.04552 -234.74H43.7722V-197.205H2.04552V-234.74ZM2.04552 -195.366H15.7239V-157.831H2.04552V-195.366ZM2.04552 -155.991H31.4489V-79.0822H2.04552V-155.991ZM2.04552 -77.2422H43.7722V-39.7074H2.04552V-77.2422ZM2.04552 2.54785H31.4489V79.4565H2.04552V2.54785ZM2.04552 81.2965H43.7722V118.831H2.04552V81.2965ZM2.04552 120.671H15.7239V158.206H2.04552V120.671ZM2.04552 160.046H43.7722V197.58H2.04552V160.046ZM2.04552 199.42H15.7239V236.955H2.04552V199.42ZM2.04552 238.794H31.4489V315.703H2.04552V238.794ZM2.04552 317.543H43.7722V355.077H2.04552V317.543ZM2.04552 397.333H31.4489V474.243H2.04552V397.333ZM2.04552 476.082H43.7722V513.616H2.04552V476.082ZM2.04552 555.466H43.7722V593H2.04552V555.466ZM2.04552 594.84H15.7239V632.374H2.04552V594.84ZM2.04552 634.214H31.4489V711.124H2.04552V634.214ZM2.04552 712.964H43.7722V750.499H2.04552V712.964ZM2.04552 792.753H31.4489V869.663H2.04552V792.753ZM2.04552 871.503H43.7722V909.037H2.04552V871.503ZM2.04552 910.877H15.7239V948.411H2.04552V910.877ZM2.04552 950.251H43.7722V987.786H2.04552V950.251ZM2.04552 989.625H15.7239V1027.16H2.04552V989.625ZM17.7695 1027.16V1017.92L43.7722 994.532V1027.16H17.7695ZM45.8177 987.785V950.25H75.221V1027.16H45.8177V987.785ZM88.5681 1027.16H77.2666V1007.38L131.318 958.765V987.785V1027.16H88.5681ZM133.364 989.625H147.043V1027.16H133.364V989.625ZM149.088 1027.16V1017.92L175.091 994.532V1027.16H149.088ZM177.136 988.705V987.785V950.25H206.539V1027.16H177.136V988.705ZM262.637 1027.16H208.585V1007.38L262.637 958.765V987.785V1027.16ZM264.682 989.625H278.361V1027.16H264.682V989.625ZM280.406 1027.16V1017.92L306.409 994.532V1027.16H280.406ZM308.455 987.785V950.25H337.858V1027.16H308.455V987.785ZM393.954 1027.16H351.204H339.903V1007.38L393.954 958.765V988.705V1027.16ZM393.954 877.415L339.903 926.035V902.106L373.925 871.503H393.954V877.415ZM367.952 869.663V860.425L393.954 837.035V869.663H367.952ZM393.954 834.433L367.952 857.823V847.161L384.663 832.128H393.954V834.433ZM365.906 832.128V869.663H352.227V832.128H365.906ZM350.181 869.663H307.432H306.409H296.13V849.887L350.182 801.268V830.288V869.663H350.181ZM393.954 718.876L339.903 767.496V743.567L373.925 712.964H393.954V718.876ZM367.952 711.124V701.886L393.954 678.496V711.124H367.952ZM352.227 671.749V634.214H393.954V671.749H352.227ZM393.954 632.374H352.227H351.204H339.903V612.6L393.954 563.979V593.285V632.374ZM393.954 481.994L339.903 530.615V506.686L373.925 476.082H393.954V481.994ZM367.952 474.242V465.005L393.954 441.615V474.242H367.952ZM393.954 439.013L367.952 462.403V451.74L384.663 436.707H393.954V439.013ZM365.906 436.707V474.242H352.227V436.707H365.906ZM350.181 474.242H307.432H306.409H296.13V454.467L350.182 405.846V434.867V474.242H350.181ZM393.954 323.455L339.903 372.076V348.147L373.925 317.543H393.954V323.455ZM367.952 315.703V306.466L393.954 283.076V315.703H367.952ZM352.227 276.329V238.794H393.954V276.329H352.227ZM393.954 236.954H352.227H351.204H339.903V217.18L393.954 168.559V198.499V236.954ZM393.954 87.2084L339.903 135.829V111.901L373.925 81.2965H393.954V87.2084ZM367.952 79.4565V70.2189L393.954 46.8299V79.4565H367.952ZM393.954 44.2281L367.952 67.6171V56.9544L384.663 41.9217H393.954V44.2281ZM365.906 41.9217V79.4565H352.227V41.9217H365.906ZM350.181 79.4565H307.432H306.409H296.13V59.6822L350.182 11.0615V40.0817V79.4565H350.181ZM393.954 -71.3304L339.903 -22.7097V-46.6387L373.925 -77.2422H393.954V-71.3304ZM367.952 -79.0822V-88.3199L393.954 -111.709V-79.0822H367.952ZM352.227 -118.457V-155.991H393.954V-118.457H352.227ZM393.954 -157.831H352.227H351.204H339.903V-177.606L393.954 -226.227V-196.921V-157.831ZM393.954 -308.212L339.903 -259.591V-283.52L373.925 -314.124H393.954V-308.212ZM367.952 -315.963V-325.201L393.954 -348.591V-315.963H367.952ZM393.954 -351.192L367.952 -327.802V-338.465L384.663 -353.498H393.954V-351.192ZM365.906 -353.498V-315.963H352.227V-353.498H365.906ZM350.181 -315.963H307.432H306.409H296.13V-335.738L350.182 -384.358V-355.338V-315.963H350.181ZM393.954 -466.751L339.903 -418.13V-442.059L373.925 -472.663H393.954V-466.751ZM367.952 -474.503V-483.74L393.954 -507.13V-474.503H367.952ZM352.227 -513.877V-551.41H393.954V-513.877H352.227Z" fill="#383C3E" fill-opacity="0.6"/>
</g>
<defs>
<clipPath id="clip0_58_2">
<rect width="396" height="1661" fill="white" transform="translate(0 -632)"/>
</clipPath>
</defs>
</svg>
