<svg width="135" height="68" viewBox="0 0 135 68" fill="none" xmlns="http://www.w3.org/2000/svg">
<path d="M35.3955 22.524V25.32H38.4435V26.22H35.3955V29.1H38.8035V30H34.3035V21.624H38.8035V22.524H35.3955ZM46.7558 25.824L49.3238 30H48.0878L46.0838 26.736L44.1758 30H42.9638L45.5198 25.824L42.9518 21.636H44.1758L46.1918 24.912L48.1118 21.636H49.3358L46.7558 25.824ZM59.2609 24.084C59.2609 24.78 59.0209 25.36 58.5409 25.824C58.0689 26.28 57.3449 26.508 56.3689 26.508H54.7609V30H53.6689V21.636H56.3689C57.3129 21.636 58.0289 21.864 58.5169 22.32C59.0129 22.776 59.2609 23.364 59.2609 24.084ZM56.3689 25.608C56.9769 25.608 57.4249 25.476 57.7129 25.212C58.0009 24.948 58.1449 24.572 58.1449 24.084C58.1449 23.052 57.5529 22.536 56.3689 22.536H54.7609V25.608H56.3689ZM64.5902 29.112H67.5182V30H63.4982V21.636H64.5902V29.112ZM75.3499 30.084C74.5739 30.084 73.8659 29.904 73.2259 29.544C72.5859 29.176 72.0779 28.668 71.7019 28.02C71.3339 27.364 71.1499 26.628 71.1499 25.812C71.1499 24.996 71.3339 24.264 71.7019 23.616C72.0779 22.96 72.5859 22.452 73.2259 22.092C73.8659 21.724 74.5739 21.54 75.3499 21.54C76.1339 21.54 76.8459 21.724 77.4859 22.092C78.1259 22.452 78.6299 22.956 78.9979 23.604C79.3659 24.252 79.5499 24.988 79.5499 25.812C79.5499 26.636 79.3659 27.372 78.9979 28.02C78.6299 28.668 78.1259 29.176 77.4859 29.544C76.8459 29.904 76.1339 30.084 75.3499 30.084ZM75.3499 29.136C75.9339 29.136 76.4579 29 76.9219 28.728C77.3939 28.456 77.7619 28.068 78.0259 27.564C78.2979 27.06 78.4339 26.476 78.4339 25.812C78.4339 25.14 78.2979 24.556 78.0259 24.06C77.7619 23.556 77.3979 23.168 76.9339 22.896C76.4699 22.624 75.9419 22.488 75.3499 22.488C74.7579 22.488 74.2299 22.624 73.7659 22.896C73.3019 23.168 72.9339 23.556 72.6619 24.06C72.3979 24.556 72.2659 25.14 72.2659 25.812C72.2659 26.476 72.3979 27.06 72.6619 27.564C72.9339 28.068 73.3019 28.456 73.7659 28.728C74.2379 29 74.7659 29.136 75.3499 29.136ZM88.2754 30L86.2834 26.58H84.9634V30H83.8714V21.636H86.5714C87.2034 21.636 87.7354 21.744 88.1674 21.96C88.6074 22.176 88.9354 22.468 89.1514 22.836C89.3674 23.204 89.4754 23.624 89.4754 24.096C89.4754 24.672 89.3074 25.18 88.9714 25.62C88.6434 26.06 88.1474 26.352 87.4834 26.496L89.5834 30H88.2754ZM84.9634 25.704H86.5714C87.1634 25.704 87.6074 25.56 87.9034 25.272C88.1994 24.976 88.3474 24.584 88.3474 24.096C88.3474 23.6 88.1994 23.216 87.9034 22.944C87.6154 22.672 87.1714 22.536 86.5714 22.536H84.9634V25.704ZM95.1442 22.524V25.32H98.1922V26.22H95.1442V29.1H98.5522V30H94.0522V21.624H98.5522V22.524H95.1442ZM50.1306 38.636L46.9746 47H45.7146L42.5586 38.636H43.7226L46.3506 45.848L48.9786 38.636H50.1306ZM55.3 38.636V47H54.208V38.636H55.3ZM61.1331 46.112H64.0611V47H60.0411V38.636H61.1331V46.112ZM69.1928 46.112H72.1208V47H68.1008V38.636H69.1928V46.112ZM81.1045 45.14H77.4565L76.7845 47H75.6325L78.6565 38.684H79.9165L82.9285 47H81.7765L81.1045 45.14ZM80.7925 44.252L79.2805 40.028L77.7685 44.252H80.7925ZM89.7785 47.084C89.2265 47.084 88.7305 46.988 88.2905 46.796C87.8585 46.596 87.5185 46.324 87.2705 45.98C87.0225 45.628 86.8945 45.224 86.8865 44.768H88.0505C88.0905 45.16 88.2505 45.492 88.5305 45.764C88.8185 46.028 89.2345 46.16 89.7785 46.16C90.2985 46.16 90.7065 46.032 91.0025 45.776C91.3065 45.512 91.4585 45.176 91.4585 44.768C91.4585 44.448 91.3705 44.188 91.1945 43.988C91.0185 43.788 90.7985 43.636 90.5345 43.532C90.2705 43.428 89.9145 43.316 89.4665 43.196C88.9145 43.052 88.4705 42.908 88.1345 42.764C87.8065 42.62 87.5225 42.396 87.2825 42.092C87.0505 41.78 86.9345 41.364 86.9345 40.844C86.9345 40.388 87.0505 39.984 87.2825 39.632C87.5145 39.28 87.8385 39.008 88.2545 38.816C88.6785 38.624 89.1625 38.528 89.7065 38.528C90.4905 38.528 91.1305 38.724 91.6265 39.116C92.1305 39.508 92.4145 40.028 92.4785 40.676H91.2785C91.2385 40.356 91.0705 40.076 90.7745 39.836C90.4785 39.588 90.0865 39.464 89.5985 39.464C89.1425 39.464 88.7705 39.584 88.4825 39.824C88.1945 40.056 88.0505 40.384 88.0505 40.808C88.0505 41.112 88.1345 41.36 88.3025 41.552C88.4785 41.744 88.6905 41.892 88.9385 41.996C89.1945 42.092 89.5505 42.204 90.0065 42.332C90.5585 42.484 91.0025 42.636 91.3385 42.788C91.6745 42.932 91.9625 43.16 92.2025 43.472C92.4425 43.776 92.5625 44.192 92.5625 44.72C92.5625 45.128 92.4545 45.512 92.2385 45.872C92.0225 46.232 91.7025 46.524 91.2785 46.748C90.8545 46.972 90.3545 47.084 89.7785 47.084Z" fill="white"/>
<rect x="0.5" y="0.5" width="134" height="67" stroke="white"/>
</svg>
