<svg width="136" height="46" viewBox="0 0 136 46" fill="none" xmlns="http://www.w3.org/2000/svg">
<path d="M135.429 0H35.9808V32.1488H135.429V0Z" fill="#1D1D1B"/>
<path d="M51.4669 5.23315V20.2214C51.4669 26.3695 45.279 26.3695 45.279 26.3695H42.6431V22.8413H45.279C47.915 22.8413 47.915 20.2083 47.915 20.2083V8.46515H44.1653V5.23315H51.4669Z" fill="white"/>
<path d="M60.5543 8.79407V14.0601H69.3386V17.5685H60.5543V22.8345H71.0981V26.3627H57.0222V5.26587H71.1179V8.79407H60.5543Z" fill="white"/>
<path d="M91.3949 5.26587L82.9401 26.909L74.5182 5.26587H78.3206L82.9335 17.7199L87.586 5.26587H91.3949Z" fill="white"/>
<path d="M98.3936 8.79407V14.0601H107.178V17.5685H98.3936V22.8345H108.937V26.3627H94.8614V5.26587H108.957V8.79407H98.3936Z" fill="white"/>
<path d="M117.313 5.26587C122.44 5.26587 129.656 6.44413 129.656 15.7978C129.656 24.8092 122.565 26.3298 117.313 26.3298H113.781V5.26587H117.313ZM126.097 15.7978C126.097 7.3591 117.313 8.68217 117.313 8.68217V22.9332C117.313 22.9332 126.124 24.1378 126.124 15.8176L126.097 15.7978Z" fill="white"/>
<path d="M13.0612 0V8.35974L21.4303 0H13.0612Z" fill="#41C0F0"/>
<path d="M13.0612 19.1023L32.185 0H26.3727L13.0612 13.2966V19.1023Z" fill="#41C0F0"/>
<path d="M13.0612 24.0391V32.1487H32.185V4.93677L13.0612 24.0391Z" fill="#41C0F0"/>
<path d="M9.56191 0H0V32.1488H9.56191V0Z" fill="#41C0F0"/>
<path d="M46.8456 40.04C46.7016 39.7627 46.5016 39.5547 46.2456 39.416C45.9896 39.272 45.6936 39.2 45.3576 39.2C44.9896 39.2 44.6616 39.2827 44.3736 39.448C44.0856 39.6133 43.8589 39.848 43.6936 40.152C43.5336 40.456 43.4536 40.808 43.4536 41.208C43.4536 41.608 43.5336 41.9627 43.6936 42.272C43.8589 42.576 44.0856 42.8107 44.3736 42.976C44.6616 43.1413 44.9896 43.224 45.3576 43.224C45.8536 43.224 46.2562 43.0853 46.5656 42.808C46.8749 42.5307 47.0642 42.1547 47.1336 41.68H45.0456V40.952H48.1096V41.664C48.0509 42.096 47.8962 42.4933 47.6456 42.856C47.4002 43.2187 47.0776 43.5093 46.6776 43.728C46.2829 43.9413 45.8429 44.048 45.3576 44.048C44.8349 44.048 44.3576 43.928 43.9256 43.688C43.4936 43.4427 43.1496 43.104 42.8936 42.672C42.6429 42.24 42.5176 41.752 42.5176 41.208C42.5176 40.664 42.6429 40.176 42.8936 39.744C43.1496 39.312 43.4936 38.976 43.9256 38.736C44.3629 38.4907 44.8402 38.368 45.3576 38.368C45.9496 38.368 46.4749 38.5147 46.9336 38.808C47.3976 39.096 47.7336 39.5067 47.9416 40.04H46.8456ZM66.3371 44L65.0571 41.776H64.3611V44H63.4491V38.44H65.3691C65.7957 38.44 66.1557 38.5147 66.4491 38.664C66.7477 38.8133 66.9691 39.0133 67.1131 39.264C67.2624 39.5147 67.3371 39.7947 67.3371 40.104C67.3371 40.4667 67.2304 40.7973 67.0171 41.096C66.8091 41.3893 66.4864 41.5893 66.0491 41.696L67.4251 44H66.3371ZM64.3611 41.048H65.3691C65.7104 41.048 65.9664 40.9627 66.1371 40.792C66.3131 40.6213 66.4011 40.392 66.4011 40.104C66.4011 39.816 66.3157 39.592 66.1451 39.432C65.9744 39.2667 65.7157 39.184 65.3691 39.184H64.3611V41.048ZM85.4798 44.056C84.9624 44.056 84.4851 43.936 84.0478 43.696C83.6158 43.4507 83.2718 43.112 83.0158 42.68C82.7651 42.2427 82.6398 41.752 82.6398 41.208C82.6398 40.664 82.7651 40.176 83.0158 39.744C83.2718 39.312 83.6158 38.976 84.0478 38.736C84.4851 38.4907 84.9624 38.368 85.4798 38.368C86.0024 38.368 86.4798 38.4907 86.9118 38.736C87.3491 38.976 87.6931 39.312 87.9438 39.744C88.1944 40.176 88.3198 40.664 88.3198 41.208C88.3198 41.752 88.1944 42.2427 87.9438 42.68C87.6931 43.112 87.3491 43.4507 86.9118 43.696C86.4798 43.936 86.0024 44.056 85.4798 44.056ZM85.4798 43.264C85.8478 43.264 86.1758 43.1813 86.4638 43.016C86.7518 42.8453 86.9758 42.6053 87.1358 42.296C87.3011 41.9813 87.3838 41.6187 87.3838 41.208C87.3838 40.7973 87.3011 40.4373 87.1358 40.128C86.9758 39.8187 86.7518 39.5813 86.4638 39.416C86.1758 39.2507 85.8478 39.168 85.4798 39.168C85.1118 39.168 84.7838 39.2507 84.4958 39.416C84.2078 39.5813 83.9811 39.8187 83.8158 40.128C83.6558 40.4373 83.5758 40.7973 83.5758 41.208C83.5758 41.6187 83.6558 41.9813 83.8158 42.296C83.9811 42.6053 84.2078 42.8453 84.4958 43.016C84.7838 43.1813 85.1118 43.264 85.4798 43.264ZM104.561 38.44V41.984C104.561 42.4053 104.671 42.7227 104.889 42.936C105.113 43.1493 105.423 43.256 105.817 43.256C106.217 43.256 106.527 43.1493 106.745 42.936C106.969 42.7227 107.081 42.4053 107.081 41.984V38.44H107.993V41.968C107.993 42.4213 107.895 42.8053 107.697 43.12C107.5 43.4347 107.236 43.6693 106.905 43.824C106.575 43.9787 106.209 44.056 105.809 44.056C105.409 44.056 105.044 43.9787 104.713 43.824C104.388 43.6693 104.129 43.4347 103.937 43.12C103.745 42.8053 103.649 42.4213 103.649 41.968V38.44H104.561ZM127.509 40.096C127.509 40.3787 127.442 40.6453 127.309 40.896C127.175 41.1467 126.962 41.352 126.669 41.512C126.375 41.6667 125.999 41.744 125.541 41.744H124.533V44H123.621V38.44H125.541C125.967 38.44 126.327 38.5147 126.621 38.664C126.919 38.808 127.141 39.0053 127.285 39.256C127.434 39.5067 127.509 39.7867 127.509 40.096ZM125.541 41C125.887 41 126.146 40.9227 126.317 40.768C126.487 40.608 126.573 40.384 126.573 40.096C126.573 39.488 126.229 39.184 125.541 39.184H124.533V41H125.541Z" fill="white"/>
</svg>
