<svg width="28" height="28" viewBox="0 0 28 28" fill="none" xmlns="http://www.w3.org/2000/svg">
<g clip-path="url(#clip0_2_840)">
<path d="M12.497 8.68408C12.497 8.07908 12.022 7.58008 11.279 7.58008H10.216V9.88708H11.279C12.023 9.88608 12.497 9.34808 12.497 8.68408Z" fill="white"/>
<path d="M18.365 11.516C19.454 11.516 20.237 10.624 20.237 9.56504C20.237 8.50504 19.454 7.61304 18.365 7.61304C17.274 7.61304 16.492 8.50504 16.492 9.56504C16.491 10.624 17.274 11.516 18.365 11.516Z" fill="white"/>
<path d="M5.602 14.83H7.58V18.665L8.568 19.855V14.83H9.883L13.182 18.683V14.83H14.83V21.75H13.509L10.216 17.93V21.624V21.623V21.749H10.07L0.33 11.887V27.682H27.683V0H0V11.227L5.602 16.987V14.83ZM21.421 16.478H19.443V21.751H17.795V16.478H15.488V14.83H21.42L21.421 16.478ZM18.365 6.056C20.406 6.056 21.942 7.601 21.942 9.564C21.942 11.526 20.406 13.071 18.365 13.071C16.334 13.071 14.798 11.525 14.798 9.564C14.797 7.602 16.332 6.056 18.365 6.056ZM8.568 6.262H11.319C13.074 6.262 14.172 7.173 14.172 8.689C14.172 10.265 13.023 11.205 11.179 11.205H10.215V12.853H8.567L8.568 6.262ZM5.602 6.262H7.58V12.853H5.602V6.262Z" fill="white"/>
</g>
<defs>
<clipPath id="clip0_2_840">
<rect width="27.682" height="27.682" fill="white"/>
</clipPath>
</defs>
</svg>
