<svg width="23" height="20" viewBox="0 0 23 20" fill="none" xmlns="http://www.w3.org/2000/svg">
<path d="M22.462 19.8H17.648V12.84C17.648 11.018 16.895 9.77399 15.239 9.77399C13.973 9.77399 13.268 10.613 12.94 11.422C12.817 11.712 12.836 12.117 12.836 12.521V19.8H8.06702C8.06702 19.8 8.12802 7.47001 8.06702 6.35001H12.836V8.461C13.118 7.538 14.642 6.22101 17.073 6.22101C20.09 6.22101 22.46 8.15599 22.46 12.322V19.8H22.462ZM3.24597 4.66699H3.21503C1.67803 4.66699 0.682007 3.63899 0.682007 2.33499C0.682007 1.00599 1.70802 0 3.27502 0C4.84102 0 5.80402 1.004 5.83502 2.332C5.83502 3.635 4.84197 4.66699 3.24597 4.66699ZM1.23199 6.349H5.47699V19.799H1.23199V6.349Z" fill="white"/>
</svg>
