<svg width="23" height="20" viewBox="0 0 23 20" fill="none" xmlns="http://www.w3.org/2000/svg">
<path d="M18.906 18.945C18.636 19.618 17.872 19.945 17.199 19.675C17.145 19.653 17.092 19.628 17.042 19.599L11.99 15.673L8.74698 18.665C8.59398 18.778 8.39398 18.805 8.21698 18.737L8.83898 13.175L8.85898 13.191L8.87198 13.081C8.87198 13.081 17.964 4.80402 18.334 4.45102C18.709 4.09902 18.585 4.02302 18.585 4.02302C18.606 3.59402 17.912 4.02302 17.912 4.02302L5.86598 11.773L0.84898 10.064C0.84898 10.064 0.0779797 9.78802 0.00597974 9.18002C-0.0720203 8.57802 0.87298 8.25002 0.87298 8.25002L20.819 0.326024C20.819 0.326024 22.459 -0.404976 22.459 0.805024L18.906 18.945Z" fill="white"/>
</svg>
