<svg width="24" height="20" viewBox="0 0 24 20" fill="none" xmlns="http://www.w3.org/2000/svg">
<path d="M23.27 2.54596C22.416 2.93496 21.496 3.19795 20.531 3.31595C21.516 2.71095 22.273 1.75295 22.629 0.609955C21.706 1.16995 20.687 1.57696 19.598 1.79596C18.73 0.845959 17.489 0.251953 16.116 0.251953C13.483 0.251953 11.347 2.44195 11.347 5.14395C11.347 5.52695 11.388 5.89995 11.47 6.25795C7.50497 6.05395 3.98996 4.10796 1.63596 1.14496C1.22496 1.86996 0.98996 2.71095 0.98996 3.60695C0.98996 5.30295 1.83197 6.80095 3.11197 7.67896C2.33097 7.65495 1.59398 7.43295 0.949982 7.06895V7.12895C0.949982 9.49995 2.59496 11.4779 4.77896 11.9259C4.37896 12.0409 3.95697 12.098 3.52197 12.098C3.21497 12.098 2.91496 12.069 2.62396 12.011C3.23096 13.954 4.99196 15.369 7.07996 15.407C5.44796 16.72 3.38897 17.502 1.15497 17.502C0.769968 17.502 0.388968 17.48 0.0169678 17.435C2.12897 18.821 4.63696 19.631 7.32996 19.631C16.106 19.631 20.904 12.178 20.904 5.71295C20.904 5.49995 20.9 5.28695 20.892 5.07895C21.823 4.38795 22.633 3.52696 23.27 2.54596Z" fill="white"/>
</svg>
