<svg width="24" height="17" viewBox="0 0 24 17" fill="none" xmlns="http://www.w3.org/2000/svg">
<path d="M9.71201 11.6279L9.711 4.98291L16.056 8.31689L9.71201 11.6279ZM23.644 3.8309C23.644 3.8309 23.414 2.20092 22.71 1.48392C21.817 0.541917 20.816 0.53691 20.357 0.48291C17.071 0.24391 12.141 0.243896 12.141 0.243896H12.131C12.131 0.243896 7.20101 0.24391 3.91501 0.48291C3.45601 0.53791 2.455 0.541917 1.561 1.48392C0.857005 2.20192 0.627991 3.8309 0.627991 3.8309C0.627991 3.8309 0.393005 5.7449 0.393005 7.65891V9.45392C0.393005 11.3679 0.627991 13.2819 0.627991 13.2819C0.627991 13.2819 0.857005 14.9119 1.561 15.6289C2.455 16.5709 3.628 16.5419 4.151 16.6399C6.03 16.8219 12.136 16.8779 12.136 16.8779C12.136 16.8779 17.071 16.8709 20.357 16.6309C20.816 16.5759 21.817 16.5709 22.71 15.6289C23.414 14.9109 23.644 13.2819 23.644 13.2819C23.644 13.2819 23.879 11.3679 23.879 9.45392V7.65891C23.879 5.7449 23.644 3.8309 23.644 3.8309Z" fill="white"/>
</svg>
