<svg width="130" height="122" viewBox="0 0 130 122" fill="none" xmlns="http://www.w3.org/2000/svg">
<g clip-path="url(#clip0_2_988)">
<path d="M64.9994 68.7558C73.7126 68.7558 80.7761 61.6479 80.7761 52.8798C80.7761 44.1118 73.7126 37.0039 64.9994 37.0039C56.2861 37.0039 49.2227 44.1118 49.2227 52.8798C49.2227 61.6479 56.2861 68.7558 64.9994 68.7558Z" fill="#EDECEB"/>
<path d="M24.855 91.5728C33.5683 91.5728 40.6318 84.4649 40.6318 75.6968C40.6318 66.9288 33.5683 59.8209 24.855 59.8209C16.1418 59.8209 9.07831 66.9288 9.07831 75.6968C9.07831 84.4649 16.1418 91.5728 24.855 91.5728Z" fill="#EDECEB"/>
<path d="M64.9994 116.127C73.7126 116.127 80.7761 109.019 80.7761 100.251C80.7761 91.4826 73.7126 84.3748 64.9994 84.3748C56.2861 84.3748 49.2227 91.4826 49.2227 100.251C49.2227 109.019 56.2861 116.127 64.9994 116.127Z" fill="#EDECEB"/>
<path d="M105.145 91.5728C113.858 91.5728 120.922 84.4649 120.922 75.6968C120.922 66.9288 113.858 59.8209 105.145 59.8209C96.4317 59.8209 89.3682 66.9288 89.3682 75.6968C89.3682 84.4649 96.4317 91.5728 105.145 91.5728Z" fill="#EDECEB"/>
<path d="M24.8538 73.719C19.9774 73.719 14.7679 70.3946 14.7679 61.066C14.7679 51.7386 19.9774 48.4142 24.8538 48.4142C29.7303 48.4142 34.9409 51.7386 34.9409 61.066C34.9409 70.3959 29.7303 73.719 24.8538 73.719ZM24.8538 50.8616C19.9895 50.8616 17.1988 54.5811 17.1988 61.0672C17.1988 67.5534 19.9895 71.274 24.8538 71.274C29.7193 71.274 32.51 67.5534 32.51 61.0672C32.51 54.5811 29.7193 50.8616 24.8538 50.8616Z" fill="#1C1C1C"/>
<path d="M44.0764 97.122H5.63368C1.84264 97.122 0 95.1919 0 91.2217C0 87.4888 5.89257 77.414 15.1812 75.4681C15.8411 75.3323 16.4817 75.7555 16.6203 76.416C16.7564 77.0777 16.3346 77.7247 15.6783 77.8641C7.63433 79.5471 2.43093 88.5003 2.43093 91.2217C2.43093 93.8685 3.17844 94.6757 5.63368 94.6757H44.0764C46.5316 94.6757 47.2791 93.8685 47.2791 91.2217C47.2791 88.5003 42.0757 79.5484 34.033 77.8641C33.3767 77.7259 32.9537 77.0777 33.091 76.416C33.2272 75.7555 33.8628 75.3311 34.5301 75.4681C43.8199 77.414 49.7113 87.4888 49.7113 91.2217C49.7088 95.1919 47.8674 97.122 44.0764 97.122Z" fill="#1C1C1C"/>
<path d="M105.145 73.719C100.269 73.719 95.0578 70.3946 95.0578 61.066C95.0578 51.7386 100.269 48.4142 105.145 48.4142C110.021 48.4142 115.232 51.7386 115.232 61.066C115.232 70.3959 110.021 73.719 105.145 73.719ZM105.145 50.8616C100.279 50.8616 97.4888 54.5811 97.4888 61.0672C97.4888 67.5534 100.279 71.274 105.145 71.274C110.01 71.274 112.801 67.5534 112.801 61.0672C112.801 54.5811 110.01 50.8616 105.145 50.8616Z" fill="#1C1C1C"/>
<path d="M124.365 97.122H85.9236C82.1326 97.122 80.2887 95.1919 80.2887 91.2217C80.2887 87.4888 86.1813 77.414 95.4699 75.4681C96.1335 75.3323 96.7704 75.7555 96.909 76.416C97.0451 77.0777 96.6234 77.7247 95.967 77.8641C87.9243 79.5484 82.7209 88.5003 82.7209 91.2217C82.7209 93.8685 83.4696 94.6757 85.9248 94.6757H124.366C126.822 94.6757 127.57 93.8685 127.57 91.2217C127.57 88.5003 122.367 79.5484 114.324 77.8641C113.668 77.7259 113.245 77.0777 113.382 76.416C113.52 75.7555 114.156 75.3311 114.821 75.4681C124.111 77.414 130.002 87.4888 130.002 91.2217C130 95.1919 128.156 97.122 124.365 97.122Z" fill="#1C1C1C"/>
<path d="M65.0006 98.5959C60.1241 98.5959 54.9135 95.2715 54.9135 85.9441C54.9135 76.6154 60.1241 73.291 65.0006 73.291C69.877 73.291 75.0865 76.6154 75.0865 85.9441C75.0853 95.2727 69.8758 98.5959 65.0006 98.5959ZM65.0006 75.7385C60.1351 75.7385 57.3444 79.4591 57.3444 85.9453C57.3444 92.4314 60.1351 96.1509 65.0006 96.1509C69.8649 96.1509 72.6556 92.4314 72.6556 85.9453C72.6556 79.4591 69.8637 75.7385 65.0006 75.7385Z" fill="#1C1C1C"/>
<path d="M84.2207 122H45.778C41.987 122 40.1443 120.07 40.1443 116.099C40.1443 112.366 46.0369 102.291 55.3255 100.345C55.9879 100.213 56.626 100.632 56.7646 101.293C56.9007 101.955 56.479 102.602 55.8226 102.741C47.7799 104.425 42.5765 113.377 42.5765 116.099C42.5765 118.747 43.324 119.554 45.7792 119.554H84.2219C86.6772 119.554 87.4247 118.747 87.4247 116.099C87.4247 113.377 82.2213 104.425 74.1798 102.741C73.5234 102.603 73.1004 101.955 73.2378 101.293C73.3739 100.632 74.0096 100.212 74.6769 100.345C83.9667 102.291 89.8568 112.366 89.8568 116.099C89.8544 120.07 88.0118 122 84.2207 122Z" fill="#1C1C1C"/>
<path d="M65.0006 48.8435C60.1241 48.8435 54.9135 45.5191 54.9135 36.1905C54.9135 26.8631 60.1241 23.5387 65.0006 23.5387C69.877 23.5387 75.0865 26.8631 75.0865 36.1905C75.0853 45.5191 69.8758 48.8435 65.0006 48.8435ZM65.0006 25.9849C60.1351 25.9849 57.3444 29.7044 57.3444 36.1905C57.3444 42.6766 60.1351 46.3973 65.0006 46.3973C69.8649 46.3973 72.6556 42.6766 72.6556 36.1905C72.6556 29.7044 69.8637 25.9849 65.0006 25.9849Z" fill="#1C1C1C"/>
<path d="M45.778 72.2453C41.987 72.2453 40.1443 70.3152 40.1443 66.345C40.1443 62.6121 46.0369 52.5374 55.3255 50.5914C55.9879 50.4581 56.626 50.8788 56.7646 51.5393C56.9007 52.201 56.479 52.848 55.8226 52.9875C47.7799 54.6717 42.5765 63.6236 42.5765 66.345C42.5765 68.9918 43.324 69.7991 45.7792 69.7991C46.4514 69.7991 46.9947 70.3458 46.9947 71.0222C46.9947 71.6986 46.4502 72.2453 45.778 72.2453Z" fill="#1C1C1C"/>
<path d="M84.2208 72.2453C83.5486 72.2453 83.0053 71.6985 83.0053 71.0222C83.0053 70.3458 83.5486 69.7991 84.2208 69.7991C86.676 69.7991 87.4235 68.9918 87.4235 66.345C87.4235 63.6236 82.2201 54.6717 74.1786 52.9875C73.5222 52.8492 73.0993 52.201 73.2366 51.5393C73.3727 50.8788 74.0084 50.4569 74.6757 50.5914C83.9655 52.5374 89.8557 62.6121 89.8557 66.345C89.8544 70.3152 88.0118 72.2453 84.2208 72.2453Z" fill="#1C1C1C"/>
<path d="M122.621 68.3435C122.544 68.3435 122.465 68.3374 122.386 68.324C121.605 68.1943 121.077 67.4519 121.206 66.6667C121.281 66.2019 121.353 65.7359 121.418 65.2686C121.525 64.4797 122.24 63.9171 123.032 64.0358C123.817 64.1446 124.364 64.8711 124.257 65.66C124.19 66.1554 124.116 66.6471 124.034 67.1376C123.918 67.8421 123.31 68.3435 122.621 68.3435ZM7.18826 67.1094C6.48694 67.1094 5.87313 66.5896 5.77224 65.8716C5.70175 65.3787 5.63976 64.8858 5.58142 64.3905C5.49147 63.5991 6.05545 62.8836 6.84185 62.7931C7.6161 62.6916 8.3393 63.2689 8.42925 64.0602C8.48273 64.5311 8.54229 64.9983 8.60792 65.4631C8.71974 66.252 8.17522 66.9822 7.39124 67.096C7.32439 67.1058 7.25633 67.1094 7.18826 67.1094ZM123.326 61.1101C123.309 61.1101 123.291 61.1101 123.274 61.1089C122.482 61.082 121.864 60.4129 121.892 59.6179C121.907 59.147 121.916 58.6773 121.918 58.2052C121.922 57.4126 122.564 56.7717 123.351 56.7717C123.354 56.7717 123.357 56.7717 123.36 56.7717C124.151 56.7754 124.789 57.4249 124.784 58.2223C124.782 58.7226 124.773 59.2204 124.755 59.7194C124.73 60.4973 124.094 61.1101 123.326 61.1101ZM6.64738 59.8613C5.86097 59.8613 5.22164 59.2228 5.21434 58.4315L5.21191 57.919C5.21191 57.5924 5.21434 57.2659 5.22042 56.9405C5.23501 56.143 5.95335 55.4887 6.67898 55.5242C7.47025 55.5388 8.10107 56.1956 8.08649 56.9919C8.08041 57.3001 8.07798 57.6096 8.07798 57.9202L8.08041 58.407C8.08649 59.2045 7.4508 59.8552 6.65953 59.8613C6.65589 59.8613 6.65102 59.8613 6.64738 59.8613ZM123.079 53.8485C122.352 53.8485 121.73 53.2944 121.655 52.5532C121.607 52.0823 121.554 51.6139 121.494 51.1467C121.393 50.3565 121.948 49.6337 122.733 49.5309C123.519 49.4355 124.236 49.9884 124.338 50.7773C124.402 51.2702 124.457 51.7643 124.507 52.2609C124.588 53.0535 124.015 53.7604 123.226 53.8424C123.178 53.8461 123.128 53.8485 123.079 53.8485ZM7.06064 52.6095C7.00108 52.6095 6.94152 52.607 6.88196 52.5985C6.09677 52.4994 5.53887 51.7802 5.63733 50.9901C5.6981 50.496 5.76495 50.0043 5.83909 49.5126C5.95578 48.7237 6.69113 48.1904 7.46903 48.3005C8.25179 48.4191 8.79146 49.1542 8.67356 49.9407C8.60428 50.4067 8.53986 50.8764 8.48151 51.3448C8.39157 52.075 7.7729 52.6095 7.06064 52.6095ZM121.877 46.6835C121.229 46.6835 120.641 46.2383 120.484 45.5766C120.375 45.118 120.26 44.6593 120.14 44.2043C119.935 43.435 120.389 42.6436 121.154 42.4381C121.92 42.2339 122.705 42.6876 122.909 43.4582C123.038 43.9389 123.158 44.422 123.272 44.9064C123.456 45.6806 122.981 46.4597 122.211 46.6444C122.099 46.6713 121.988 46.6835 121.877 46.6835ZM8.42317 45.4739C8.30284 45.4739 8.18008 45.458 8.05853 45.4262C7.29279 45.2244 6.83577 44.4367 7.03633 43.6661C7.16273 43.1818 7.29644 42.6999 7.435 42.2216C7.65743 41.4572 8.45477 41.0206 9.21201 41.2419C9.97167 41.4633 10.408 42.2645 10.1856 43.0289C10.0543 43.4827 9.92792 43.9389 9.8088 44.3976C9.63985 45.0458 9.05886 45.4739 8.42317 45.4739ZM119.737 39.7461C119.162 39.7461 118.618 39.3938 118.398 38.8202C118.232 38.3823 118.057 37.9457 117.878 37.5115C117.573 36.7764 117.918 35.9312 118.649 35.6254C119.379 35.3184 120.218 35.6658 120.523 36.4009C120.714 36.8595 120.896 37.3219 121.075 37.7854C121.359 38.5279 120.99 39.3632 120.251 39.6482C120.083 39.7155 119.908 39.7461 119.737 39.7461ZM10.7216 38.5805C10.5393 38.5805 10.3545 38.545 10.1759 38.4716C9.44416 38.167 9.09654 37.3256 9.39797 36.588C9.58637 36.1269 9.78084 35.6682 9.9814 35.2132C10.3023 34.4855 11.1495 34.154 11.8727 34.4794C12.5959 34.8023 12.924 35.6536 12.6032 36.3825C12.4123 36.8155 12.2276 37.2485 12.0477 37.6864C11.8192 38.2441 11.2844 38.5805 10.7216 38.5805ZM116.706 33.156C116.2 33.156 115.707 32.8844 115.447 32.405C115.222 31.9891 114.993 31.5782 114.757 31.1697C114.359 30.481 114.593 29.598 115.278 29.1992C115.961 28.8005 116.84 29.0353 117.236 29.7252C117.483 30.1533 117.726 30.5875 117.963 31.0229C118.342 31.7213 118.086 32.597 117.392 32.9811C117.174 33.0997 116.939 33.156 116.706 33.156ZM13.9049 32.0552C13.663 32.0552 13.4175 31.9928 13.1914 31.8632C12.5047 31.4656 12.2689 30.5838 12.6639 29.8927C12.9107 29.4622 13.1635 29.0341 13.4199 28.6085C13.8332 27.9284 14.7156 27.7144 15.3902 28.129C16.066 28.5449 16.2787 29.4316 15.8667 30.1117C15.6212 30.5141 15.3829 30.9201 15.1483 31.3311C14.8834 31.7959 14.4008 32.0552 13.9049 32.0552ZM17.9038 26.0057C17.6011 26.0057 17.2961 25.9103 17.0372 25.7109C16.4076 25.2278 16.2848 24.3239 16.7637 23.6904C17.0627 23.2941 17.3678 22.9015 17.6777 22.515C18.1748 21.8973 19.0767 21.7982 19.693 22.2948C20.3104 22.7938 20.4076 23.7014 19.9117 24.3227C19.6176 24.6909 19.3295 25.0602 19.0451 25.437C18.7643 25.81 18.3365 26.0057 17.9038 26.0057ZM108.231 21.4276C107.849 21.4276 107.468 21.2759 107.187 20.9726C106.866 20.6301 106.54 20.2913 106.208 19.9538C105.652 19.3887 105.654 18.475 106.217 17.9148C106.779 17.3547 107.685 17.3559 108.243 17.9234C108.592 18.2769 108.937 18.6365 109.275 18.9985C109.817 19.5783 109.789 20.4919 109.212 21.0362C108.936 21.298 108.584 21.4276 108.231 21.4276ZM22.638 20.5188C22.2746 20.5188 21.9124 20.3806 21.6328 20.1042C21.0676 19.5452 21.0616 18.6328 21.6158 18.0653C21.9622 17.7106 22.3147 17.3596 22.6696 17.0159C23.2409 16.4655 24.1476 16.4826 24.6958 17.055C25.244 17.6299 25.227 18.5423 24.6569 19.0939C24.319 19.4205 23.9872 19.752 23.659 20.0871C23.3795 20.3757 23.0087 20.5188 22.638 20.5188ZM102.953 16.463C102.633 16.463 102.309 16.3542 102.042 16.1316C101.681 15.8319 101.314 15.5359 100.943 15.2424C100.318 14.7519 100.21 13.8456 100.698 13.2181C101.186 12.5894 102.087 12.4806 102.709 12.9711C103.099 13.2781 103.486 13.5912 103.866 13.908C104.476 14.4155 104.563 15.3231 104.058 15.9371C103.776 16.2844 103.366 16.463 102.953 16.463ZM28.0177 15.6729C27.5947 15.6729 27.1754 15.4858 26.8922 15.1249C26.4011 14.4999 26.5068 13.5924 27.128 13.0995C27.5145 12.7913 27.9058 12.4891 28.3009 12.1907C28.9341 11.7161 29.8336 11.8446 30.3076 12.4806C30.7816 13.119 30.6528 14.0217 30.0195 14.4999C29.644 14.7812 29.2732 15.0687 28.905 15.361C28.6424 15.5714 28.3288 15.6729 28.0177 15.6729ZM33.9504 11.5351C33.4666 11.5351 32.9938 11.2881 32.7239 10.8416C32.3119 10.1604 32.5283 9.2736 33.2053 8.86019C33.6258 8.60334 34.05 8.35138 34.4779 8.10431C35.1646 7.70925 36.041 7.94775 36.4335 8.63881C36.8274 9.32986 36.5891 10.2105 35.9024 10.608C35.4952 10.8416 35.0917 11.0814 34.693 11.3247C34.4608 11.4679 34.2032 11.5351 33.9504 11.5351ZM90.7782 8.68039C90.5728 8.68039 90.3637 8.63636 90.1656 8.54096C89.7402 8.33792 89.3099 8.13978 88.8796 7.94653C88.1564 7.62363 87.8319 6.77112 88.1516 6.04338C88.4737 5.31563 89.3233 4.98539 90.044 5.31196C90.4974 5.51377 90.9471 5.7217 91.3944 5.93574C92.1091 6.27699 92.4142 7.13683 92.0751 7.85724C91.8295 8.37584 91.3142 8.68039 90.7782 8.68039ZM40.34 8.16057C39.7931 8.16057 39.2717 7.84379 39.0322 7.30929C38.7077 6.58277 39.0298 5.72904 39.7518 5.40247C40.2015 5.19943 40.6549 5.00129 41.1119 4.80804C41.8436 4.50104 42.6823 4.84595 42.9873 5.58104C43.2936 6.31491 42.9496 7.16129 42.2204 7.46952C41.7852 7.65298 41.355 7.84012 40.9283 8.03459C40.7363 8.11899 40.537 8.16057 40.34 8.16057ZM84.0737 5.96999C83.9242 5.96999 83.771 5.94553 83.6215 5.89538C83.1754 5.74616 82.7269 5.60183 82.276 5.46362C81.52 5.23001 81.0933 4.42398 81.3255 3.66321C81.5577 2.90244 82.355 2.4719 83.1159 2.70674C83.5887 2.85229 84.0591 3.00273 84.5258 3.15929C85.277 3.41125 85.6829 4.22706 85.4338 4.98294C85.2344 5.58716 84.6741 5.96999 84.0737 5.96999ZM47.0956 5.59327C46.4842 5.59327 45.9166 5.19576 45.727 4.57687C45.4936 3.8161 45.9154 3.00885 46.6714 2.77401C47.1418 2.62724 47.6146 2.48658 48.0911 2.34959C48.8471 2.13922 49.6444 2.57709 49.8596 3.3452C50.0747 4.11087 49.6323 4.90833 48.8714 5.12605C48.418 5.25447 47.9671 5.38901 47.5198 5.52845C47.3788 5.57248 47.2354 5.59327 47.0956 5.59327ZM77.0969 4.09864C77.0033 4.09864 76.9085 4.09007 76.8113 4.0705C76.3506 3.97633 75.8887 3.88826 75.4244 3.80387C74.6453 3.66443 74.1251 2.91589 74.2637 2.13188C74.401 1.34909 75.1473 0.819487 75.9252 0.965037C76.4126 1.05188 76.8964 1.14483 77.3789 1.24268C78.1544 1.40046 78.6563 2.16124 78.4995 2.94158C78.3634 3.62652 77.7654 4.09864 77.0969 4.09864ZM54.1088 3.86502C53.4282 3.86502 52.8265 3.37823 52.7013 2.68106C52.5591 1.89704 53.0745 1.14606 53.8548 1.00418C54.3385 0.914889 54.826 0.832941 55.3158 0.755885C56.0985 0.638467 56.8303 1.17296 56.9518 1.95942C57.0733 2.7471 56.5373 3.48341 55.7546 3.60695C55.2903 3.67911 54.8284 3.75861 54.3665 3.84301C54.2802 3.85768 54.1939 3.86502 54.1088 3.86502ZM69.9463 3.08346C69.9074 3.08346 69.8685 3.08223 69.8284 3.07856C69.3593 3.04065 68.8925 3.00762 68.4209 2.98194C67.6321 2.93668 67.0268 2.25541 67.0718 1.46039C67.1155 0.664153 67.7913 0.0660533 68.5838 0.101523C69.0773 0.129655 69.5707 0.163902 70.0618 0.204264C70.8506 0.269089 71.4389 0.965037 71.3745 1.75883C71.3125 2.51349 70.6853 3.08346 69.9463 3.08346ZM61.2789 2.99662C60.5265 2.99662 59.8944 2.40708 59.8495 1.64019C59.8021 0.845172 60.4037 0.162679 61.195 0.114978C61.686 0.085623 62.1783 0.0611609 62.6718 0.0428143C63.4144 0.0232446 64.1255 0.636021 64.1559 1.43226C64.185 2.22851 63.5664 2.89755 62.7763 2.92568C62.3059 2.9428 61.8355 2.96604 61.3664 2.99417C61.336 2.99539 61.308 2.99662 61.2789 2.99662Z" fill="#D1CFCB"/>
<path d="M38.433 109.66C38.2215 109.66 38.0051 109.612 37.8022 109.512L37.1385 109.178C36.4335 108.817 36.1516 107.949 36.5101 107.238C36.8699 106.531 37.7304 106.25 38.4378 106.606L39.0687 106.923C39.7785 107.275 40.0714 108.14 39.7226 108.854C39.4698 109.364 38.9617 109.66 38.433 109.66Z" fill="#D1CFCB"/>
<path d="M32.7252 106.421C32.4602 106.421 32.194 106.348 31.9546 106.195C31.5352 105.925 31.1195 105.65 30.7063 105.369C30.0511 104.923 29.8773 104.028 30.3198 103.367C30.7634 102.708 31.6531 102.534 32.3095 102.978C32.7021 103.245 33.0971 103.508 33.497 103.765C34.1643 104.194 34.3587 105.086 33.9333 105.757C33.6611 106.187 33.1968 106.421 32.7252 106.421Z" fill="#D1CFCB"/>
<path d="M26.8484 102.098C26.5239 102.098 26.1981 101.988 25.9307 101.763L25.3752 101.29C24.7736 100.773 24.7019 99.8642 25.2148 99.2576C25.7265 98.6497 26.632 98.5763 27.2349 99.0961L27.7685 99.5487C28.3762 100.06 28.4577 100.969 27.9496 101.579C27.6652 101.922 27.258 102.098 26.8484 102.098Z" fill="#D1CFCB"/>
<path d="M102.698 102.474C102.283 102.474 101.869 102.295 101.587 101.945C101.087 101.328 101.178 100.42 101.79 99.9156L102.319 99.4753C102.926 98.9579 103.831 99.0386 104.339 99.6453C104.85 100.253 104.774 101.163 104.17 101.678L103.605 102.15C103.338 102.367 103.017 102.474 102.698 102.474Z" fill="#D1CFCB"/>
<path d="M96.2587 107.061C95.7774 107.061 95.307 106.818 95.0359 106.374C94.6215 105.695 94.833 104.806 95.5075 104.39C95.9475 104.119 96.3827 103.843 96.813 103.563C97.4778 103.129 98.3651 103.321 98.7966 103.989C99.2269 104.658 99.036 105.55 98.3724 105.982C97.9215 106.277 97.4669 106.564 97.0074 106.848C96.7741 106.993 96.5152 107.061 96.2587 107.061Z" fill="#D1CFCB"/>
<path d="M90.0489 110.385C89.5044 110.385 88.9841 110.071 88.7435 109.54C88.4165 108.815 88.7338 107.96 89.4545 107.631L90.089 107.335C90.8061 106.99 91.6594 107.304 91.9948 108.025C92.3327 108.744 92.0252 109.604 91.3093 109.943L90.642 110.256C90.4488 110.344 90.2458 110.385 90.0489 110.385Z" fill="#D1CFCB"/>
<path d="M107.869 26.1402C108.519 23.7735 110.974 21.3028 113.326 20.6485L118.905 19.0963C121.257 18.442 121.257 17.3717 118.905 16.7174L113.326 15.1653C110.974 14.5109 108.519 12.0402 107.869 9.67352L106.326 4.05946C105.676 1.69275 104.613 1.69275 103.962 4.05946L102.42 9.67352C101.77 12.0402 99.3144 14.5109 96.9625 15.1653L91.3835 16.7174C89.0316 17.3717 89.0316 18.442 91.3835 19.0963L96.9625 20.6485C99.3144 21.3028 101.77 23.7735 102.42 26.1402L103.962 31.7543C104.613 34.121 105.676 34.121 106.326 31.7543L107.869 26.1402Z" fill="#D1CFCB"/>
<path d="M119.081 5.76817C120.664 5.76817 121.948 4.47692 121.948 2.88409C121.948 1.29125 120.664 0 119.081 0C117.499 0 116.215 1.29125 116.215 2.88409C116.215 4.47692 117.499 5.76817 119.081 5.76817Z" fill="#D1CFCB"/>
</g>
<defs>
<clipPath id="clip0_2_988">
<rect width="130" height="122" fill="white"/>
</clipPath>
</defs>
</svg>
